<?xml version="1.0" encoding="utf-8" ?>
<svg xmlns="http://www.w3.org/2000/svg" xmlns:xlink="http://www.w3.org/1999/xlink" width="1024" height="1024">
	<path fill="#E2E2E2" d="M0 0L1024 0L1024 1024L0 1024L0 0Z"/>
	<path d="M507.608 245.071C513.634 244.556 518.851 245.104 524.246 248.08C531.863 252.281 539.125 258.632 546.268 263.717L595.243 298.51L657.193 342.558C666.726 349.316 680.606 358.026 689.022 365.449C691.835 367.93 694 371.002 694.943 374.67C696.578 381.022 695.568 389.956 695.569 396.528L695.554 437.711L695.59 534.145C695.572 548.292 695.922 562.506 695.568 576.643C695.5 579.342 695.671 582.754 694.156 585.08C692.298 587.934 689.598 589.949 686.237 590.654Q685.614 590.79 684.98 590.861Q684.346 590.933 683.708 590.938Q683.07 590.944 682.435 590.884Q681.8 590.824 681.175 590.699Q680.549 590.574 679.94 590.385Q679.33 590.196 678.744 589.945Q678.157 589.695 677.599 589.385Q677.042 589.075 676.519 588.71C673.556 586.628 671.914 583.492 671.294 579.977C670.403 574.932 671.06 569.166 671.09 564.039L671.077 535.757L671.06 422.987C671.062 415.413 672.098 392.123 670.811 386.598C670.101 383.55 668.356 381.279 665.977 379.313C659.326 373.818 651.391 369.224 644.312 364.204L597.515 330.746Q569.279 310.224 540.673 290.221C532.437 284.407 524.214 277.675 515.566 272.562L515.038 272.257C513.164 271.906 511.226 271.711 509.381 272.349C503.665 274.326 491.578 284.386 485.882 288.441L433.035 326.08L391.068 355.952C384.181 360.813 358.033 377.813 353.912 383.521C352.642 385.279 352.588 388.157 352.483 390.266C351.679 406.311 352.502 422.816 352.5 438.901L352.48 540.385C352.477 548.822 353.729 579.673 351.049 584.832C349.501 587.812 346.635 589.886 343.413 590.724C340.225 591.553 336.41 591.304 333.617 589.456C330.448 587.36 328.719 584.95 328.079 581.223C326.739 573.418 327.59 564.342 327.603 556.398L327.652 509.999L327.733 417.858C327.809 405.197 327.012 392.016 327.862 379.419C328.122 375.556 329.053 371.941 331.364 368.76C335.135 363.571 360.846 347.086 367.493 342.377Q402.23 317.394 437.222 292.766C457.687 278.239 477.755 262.712 498.774 249.026C501.675 247.138 504.147 245.714 507.608 245.071Z"/>
	<path d="M451.843 355.7C455.212 355.298 459.138 355.878 462.424 356.696Q463.282 356.915 464.128 357.176Q464.974 357.436 465.806 357.738Q466.638 358.04 467.455 358.382Q468.272 358.724 469.071 359.106Q469.869 359.487 470.649 359.907Q471.428 360.327 472.186 360.785Q472.944 361.243 473.678 361.737Q474.413 362.231 475.122 362.761Q475.832 363.29 476.514 363.854Q477.197 364.417 477.852 365.014Q478.506 365.61 479.131 366.237Q479.755 366.865 480.348 367.522Q480.942 368.179 481.502 368.865Q482.062 369.55 482.588 370.262Q483.114 370.974 483.605 371.711Q484.096 372.448 484.55 373.208C490.368 382.912 490.282 393.33 487.615 403.98C494.59 408.579 501.185 414.315 507.798 419.453Q529.327 436.424 551.265 452.863C561.247 448.237 570.762 446.432 581.506 449.777Q582.343 450.041 583.166 450.346Q583.989 450.652 584.795 450.998Q585.602 451.343 586.39 451.729Q587.178 452.115 587.946 452.539Q588.715 452.964 589.461 453.426Q590.207 453.888 590.929 454.386Q591.651 454.885 592.348 455.419Q593.044 455.953 593.713 456.521Q594.382 457.089 595.022 457.69Q595.662 458.29 596.271 458.922Q596.88 459.554 597.457 460.215Q598.034 460.876 598.577 461.566Q599.12 462.255 599.629 462.97Q600.137 463.686 600.609 464.425Q601.081 465.165 601.516 465.928Q601.951 466.69 602.347 467.473Q602.755 468.269 603.123 469.083Q603.491 469.898 603.818 470.73Q604.146 471.561 604.433 472.408Q604.719 473.255 604.964 474.114Q605.209 474.974 605.411 475.845Q605.613 476.716 605.773 477.595Q605.932 478.475 606.048 479.361Q606.164 480.248 606.236 481.139Q606.309 482.03 606.337 482.923Q606.366 483.817 606.351 484.71Q606.336 485.604 606.277 486.496Q606.218 487.388 606.115 488.276Q606.012 489.164 605.866 490.046Q605.72 490.928 605.531 491.802Q605.342 492.675 605.11 493.539Q604.879 494.402 604.605 495.253C601.112 505.79 593.202 512.56 583.579 517.459L583.594 558.133C583.593 565.273 584.049 572.771 583.403 579.873C583.234 581.735 582.887 583.466 581.96 585.109C580.153 588.314 577.141 589.895 573.754 590.951Q573.096 590.985 572.437 591C568.689 591.072 564.711 590.047 562.021 587.289C560.284 585.509 559.486 583.424 559.063 581.006C557.762 573.57 558.586 564.981 558.612 557.417L558.579 517.907C551.024 514.859 544.468 510.586 539.834 503.726C533.198 493.903 533.405 483.295 535.48 472.095C513.647 455.647 491.639 439.056 470.504 421.729C466.405 424.139 462.222 425.816 457.478 426.432C448.417 427.609 439.354 425.319 432.141 419.672Q431.435 419.117 430.756 418.528Q430.078 417.94 429.429 417.318Q428.781 416.697 428.163 416.045Q427.546 415.392 426.961 414.71Q426.377 414.028 425.826 413.318Q425.276 412.609 424.761 411.873Q424.246 411.137 423.768 410.376Q423.29 409.616 422.849 408.833Q422.409 408.05 422.008 407.247Q421.606 406.443 421.245 405.621Q420.883 404.799 420.562 403.96Q420.242 403.121 419.963 402.267Q419.683 401.413 419.446 400.547Q419.209 399.681 419.015 398.804Q418.821 397.927 418.67 397.041Q418.519 396.156 418.412 395.264Q418.3 394.39 418.233 393.512Q418.165 392.634 418.142 391.754Q418.119 390.873 418.141 389.993Q418.162 389.112 418.228 388.234Q418.294 387.356 418.405 386.482Q418.515 385.608 418.67 384.741Q418.824 383.874 419.022 383.016Q419.22 382.158 419.461 381.311Q419.703 380.464 419.987 379.63Q420.27 378.796 420.596 377.978Q420.922 377.16 421.288 376.359Q421.655 375.558 422.061 374.777Q422.468 373.996 422.914 373.236Q423.359 372.476 423.843 371.74Q424.326 371.004 424.846 370.293Q425.367 369.583 425.922 368.899C432.601 360.629 441.466 356.824 451.843 355.7Z"/>
	<path fill="#E2E2E2" d="M453.016 378.097Q453.332 378.085 453.649 378.089Q453.966 378.093 454.282 378.112Q454.598 378.131 454.913 378.166Q455.228 378.2 455.54 378.25Q455.853 378.3 456.163 378.365Q456.473 378.43 456.779 378.51Q457.086 378.59 457.388 378.685Q457.69 378.78 457.987 378.889Q458.284 378.999 458.576 379.123Q458.867 379.247 459.152 379.385Q459.437 379.523 459.715 379.674Q459.993 379.826 460.263 379.991Q460.534 380.156 460.796 380.334Q461.058 380.512 461.311 380.702Q461.563 380.893 461.807 381.096Q462.05 381.298 462.283 381.513Q462.516 381.727 462.739 381.952Q462.961 382.178 463.173 382.414Q463.384 382.65 463.583 382.896Q463.783 383.142 463.97 383.397Q464.157 383.652 464.332 383.917Q464.506 384.181 464.668 384.453Q464.829 384.726 464.977 385.006Q465.125 385.286 465.259 385.572Q465.393 385.859 465.514 386.152Q465.634 386.445 465.739 386.744Q465.845 387.042 465.936 387.346Q466.027 387.649 466.103 387.957Q466.179 388.264 466.24 388.575Q466.301 388.885 466.346 389.199Q466.392 389.512 466.423 389.827Q466.453 390.143 466.468 390.459Q466.483 390.775 466.483 391.092Q466.482 391.409 466.466 391.725Q466.451 392.041 466.419 392.356Q466.388 392.672 466.341 392.985Q466.295 393.298 466.233 393.609Q466.171 393.919 466.094 394.226Q466.018 394.534 465.926 394.837Q465.834 395.14 465.728 395.438Q465.621 395.736 465.501 396.029Q465.38 396.322 465.245 396.608Q465.11 396.895 464.961 397.174Q464.812 397.454 464.65 397.726Q464.488 397.998 464.313 398.262Q464.138 398.525 463.95 398.78Q463.762 399.035 463.562 399.281Q463.362 399.526 463.15 399.762Q462.938 399.997 462.715 400.222Q462.492 400.447 462.258 400.66Q462.024 400.874 461.781 401.076Q461.537 401.278 461.283 401.468Q461.03 401.658 460.768 401.835Q460.505 402.012 460.234 402.177Q459.964 402.341 459.685 402.492Q459.407 402.643 459.122 402.78Q458.836 402.917 458.544 403.04Q458.253 403.163 457.955 403.272Q457.658 403.381 457.355 403.475Q457.053 403.569 456.746 403.648Q456.44 403.728 456.13 403.792Q455.82 403.856 455.507 403.905Q455.194 403.954 454.879 403.988Q454.564 404.022 454.248 404.04Q453.821 404.065 453.393 404.061Q452.965 404.058 452.538 404.026Q452.111 403.995 451.687 403.935Q451.264 403.876 450.845 403.788Q450.426 403.701 450.014 403.586Q449.601 403.471 449.197 403.33Q448.794 403.188 448.4 403.02Q448.006 402.852 447.625 402.659Q447.243 402.465 446.875 402.247Q446.507 402.029 446.154 401.787Q445.801 401.545 445.464 401.28Q445.128 401.015 444.81 400.729Q444.492 400.443 444.193 400.136Q443.895 399.83 443.617 399.504Q443.339 399.179 443.083 398.835Q442.828 398.492 442.595 398.133Q442.362 397.774 442.154 397.4Q441.945 397.026 441.762 396.639Q441.579 396.253 441.421 395.855Q441.264 395.457 441.133 395.049Q441.002 394.642 440.898 394.227Q440.794 393.811 440.718 393.39Q440.641 392.969 440.593 392.544Q440.545 392.119 440.524 391.691Q440.504 391.264 440.512 390.836Q440.52 390.408 440.556 389.981Q440.592 389.555 440.656 389.132Q440.72 388.708 440.812 388.29Q440.903 387.872 441.022 387.461Q441.142 387.05 441.287 386.648Q441.433 386.245 441.605 385.854Q441.777 385.462 441.975 385.082Q442.172 384.702 442.395 384.336Q442.617 383.971 442.862 383.62Q443.108 383.27 443.376 382.936Q443.644 382.603 443.934 382.288Q444.223 381.972 444.533 381.677Q444.843 381.382 445.171 381.107Q445.5 380.833 445.846 380.581Q446.191 380.329 446.553 380.1Q446.915 379.871 447.291 379.667Q447.667 379.462 448.055 379.283Q448.444 379.104 448.843 378.95Q449.243 378.797 449.652 378.67Q450.061 378.543 450.477 378.444Q450.893 378.344 451.315 378.273Q451.737 378.201 452.163 378.157Q452.588 378.113 453.016 378.097Z"/>
	<path fill="#E2E2E2" d="M568.558 471.21Q568.862 471.166 569.168 471.137Q569.475 471.108 569.782 471.094Q570.089 471.081 570.396 471.082Q570.704 471.083 571.011 471.099Q571.318 471.115 571.624 471.147Q571.93 471.178 572.234 471.224Q572.538 471.27 572.839 471.331Q573.14 471.392 573.438 471.468Q573.736 471.543 574.03 471.634Q574.324 471.724 574.613 471.828Q574.903 471.933 575.186 472.051Q575.47 472.17 575.748 472.302Q576.025 472.434 576.296 472.58Q576.567 472.725 576.83 472.884Q577.094 473.043 577.349 473.214Q577.604 473.386 577.851 473.57Q578.097 473.753 578.334 473.949Q578.572 474.144 578.799 474.351Q579.026 474.558 579.243 474.776Q579.46 474.994 579.667 475.222Q579.873 475.451 580.067 475.689Q580.262 475.927 580.445 476.174Q580.627 476.421 580.798 476.677Q580.968 476.933 581.126 477.197Q581.284 477.461 581.428 477.732Q581.573 478.004 581.704 478.282Q581.835 478.56 581.952 478.844Q582.07 479.128 582.173 479.418Q582.276 479.707 582.365 480.002Q582.454 480.296 582.529 480.594Q582.603 480.893 582.663 481.194Q582.723 481.496 582.768 481.8Q582.813 482.104 582.843 482.41Q582.873 482.716 582.888 483.023Q582.903 483.33 582.903 483.638Q582.903 483.945 582.888 484.252Q582.873 484.56 582.843 484.866Q582.813 485.172 582.768 485.476Q582.723 485.78 582.663 486.081Q582.603 486.383 582.528 486.681Q582.454 486.98 582.365 487.274Q582.276 487.568 582.172 487.858Q582.069 488.147 581.951 488.431Q581.834 488.716 581.703 488.994Q581.572 489.272 581.427 489.543Q581.282 489.814 581.124 490.078Q580.967 490.342 580.796 490.598Q580.626 490.854 580.443 491.101Q580.26 491.348 580.065 491.586Q579.871 491.824 579.665 492.052Q579.458 492.281 579.241 492.498Q579.024 492.716 578.797 492.923Q578.57 493.13 578.332 493.326Q578.095 493.521 577.848 493.705Q577.602 493.888 577.347 494.06Q577.091 494.231 576.828 494.39Q576.565 494.549 576.294 494.694Q576.023 494.84 575.745 494.972Q575.468 495.104 575.184 495.222Q574.9 495.341 574.611 495.445Q574.322 495.55 574.028 495.64Q573.734 495.73 573.436 495.805Q573.138 495.881 572.836 495.942Q572.535 496.003 572.231 496.049Q571.926 496.095 571.618 496.127Q571.311 496.158 571.002 496.174Q570.694 496.19 570.385 496.191Q570.076 496.192 569.767 496.178Q569.459 496.163 569.151 496.134Q568.844 496.104 568.538 496.06Q568.232 496.015 567.929 495.956Q567.626 495.896 567.326 495.822Q567.026 495.747 566.731 495.658Q566.435 495.569 566.144 495.466Q565.853 495.363 565.567 495.245Q565.281 495.127 565.002 494.996Q564.722 494.864 564.45 494.719Q564.177 494.574 563.912 494.415Q563.647 494.257 563.389 494.086Q563.132 493.915 562.884 493.731Q562.635 493.547 562.396 493.352Q562.157 493.156 561.928 492.949Q561.699 492.741 561.48 492.523Q561.262 492.305 561.054 492.076Q560.846 491.848 560.65 491.609Q560.454 491.37 560.27 491.122Q560.086 490.874 559.914 490.618Q559.742 490.361 559.583 490.096Q559.424 489.831 559.279 489.559Q559.133 489.286 559.001 489.007Q558.869 488.728 558.75 488.442Q558.632 488.157 558.528 487.866Q558.424 487.575 558.334 487.28Q558.245 486.984 558.17 486.684Q558.095 486.385 558.034 486.082Q557.974 485.779 557.929 485.473Q557.884 485.167 557.854 484.86Q557.823 484.552 557.809 484.244Q557.794 483.935 557.794 483.626Q557.794 483.317 557.81 483.009Q557.825 482.7 557.856 482.393Q557.886 482.085 557.932 481.78Q557.977 481.474 558.038 481.171Q558.099 480.869 558.174 480.569Q558.25 480.269 558.34 479.974Q558.43 479.678 558.534 479.388Q558.639 479.097 558.758 478.812Q558.876 478.527 559.009 478.248Q559.142 477.969 559.288 477.696Q559.434 477.424 559.593 477.16Q559.753 476.895 559.925 476.638Q560.097 476.382 560.282 476.134Q560.466 475.887 560.663 475.648Q560.859 475.41 561.067 475.182Q561.275 474.953 561.494 474.735Q561.713 474.517 561.943 474.311Q562.172 474.104 562.412 473.908Q562.651 473.713 562.9 473.53Q563.148 473.347 563.406 473.176Q563.663 473.005 563.929 472.847Q564.194 472.689 564.467 472.544Q564.74 472.4 565.02 472.268Q565.3 472.137 565.585 472.02Q565.871 471.903 566.163 471.8Q566.454 471.697 566.75 471.608Q567.046 471.52 567.346 471.446Q567.646 471.372 567.949 471.313Q568.252 471.254 568.558 471.21Z"/>
	<path d="M405.49 625.398Q406.576 625.358 407.662 625.37Q408.748 625.383 409.832 625.449Q410.917 625.514 411.996 625.633Q413.076 625.752 414.149 625.923Q415.222 626.094 416.285 626.318Q417.348 626.542 418.399 626.817Q419.45 627.092 420.486 627.418Q421.522 627.745 422.541 628.121Q423.56 628.498 424.559 628.923Q425.559 629.349 426.536 629.824Q427.513 630.298 428.466 630.819Q429.419 631.341 430.346 631.908Q431.272 632.475 432.169 633.087Q433.067 633.699 433.934 634.355Q434.8 635.01 435.633 635.706Q436.467 636.403 437.265 637.14Q438.064 637.876 438.825 638.651Q439.587 639.426 440.309 640.237Q441.032 641.048 441.714 641.893Q442.396 642.739 443.036 643.616Q443.677 644.494 444.273 645.402Q444.869 646.31 445.421 647.246Q445.972 648.182 446.477 649.144Q446.982 650.106 447.439 651.091Q447.896 652.077 448.305 653.083Q448.713 654.09 449.072 655.115Q449.431 656.141 449.739 657.182Q450.047 658.224 450.304 659.279Q450.561 660.335 450.767 661.401Q450.972 662.468 451.124 663.544Q451.277 664.619 451.377 665.701Q451.477 666.783 451.524 667.868Q451.571 668.953 451.565 670.04Q451.559 671.126 451.5 672.211Q451.44 673.295 451.328 674.376Q451.216 675.456 451.051 676.53Q450.886 677.604 450.669 678.668Q450.452 679.733 450.183 680.785Q449.914 681.838 449.594 682.876Q449.274 683.914 448.904 684.935Q448.533 685.957 448.113 686.959Q447.693 687.961 447.225 688.941Q446.757 689.921 446.241 690.877Q445.725 691.833 445.163 692.763Q444.602 693.693 443.995 694.594Q443.388 695.495 442.738 696.366Q442.089 697.236 441.397 698.074Q440.705 698.911 439.973 699.714Q439.241 700.517 438.471 701.283Q437.701 702.049 436.894 702.777Q436.088 703.504 435.246 704.192Q434.405 704.879 433.531 705.524Q432.657 706.169 431.753 706.771Q430.848 707.373 429.916 707.93Q428.983 708.487 428.024 708.998Q427.065 709.508 426.082 709.971Q425.1 710.434 424.096 710.849Q423.091 711.264 422.068 711.629Q421.045 711.994 420.005 712.308Q418.965 712.623 417.912 712.886Q416.858 713.149 415.792 713.361Q414.727 713.572 413.652 713.732Q412.577 713.891 411.496 713.997Q410.415 714.104 409.33 714.157Q408.237 714.211 407.142 714.211Q406.047 714.211 404.954 714.157Q403.861 714.103 402.771 713.995Q401.682 713.887 400.599 713.726Q399.517 713.565 398.443 713.35Q397.37 713.136 396.308 712.869Q395.247 712.602 394.199 712.283Q393.152 711.964 392.122 711.594Q391.092 711.223 390.081 710.803Q389.071 710.383 388.082 709.913Q387.093 709.443 386.129 708.925Q385.164 708.407 384.227 707.843Q383.289 707.278 382.38 706.668Q381.471 706.057 380.594 705.403Q379.716 704.749 378.872 704.052Q378.027 703.355 377.218 702.618Q376.409 701.881 375.638 701.104Q374.866 700.328 374.134 699.514Q373.401 698.701 372.71 697.852Q372.018 697.004 371.369 696.122Q370.72 695.241 370.116 694.328Q369.511 693.416 368.952 692.474Q368.393 691.533 367.881 690.566Q367.369 689.598 366.905 688.607Q366.441 687.615 366.027 686.602Q365.613 685.589 365.249 684.556Q364.885 683.524 364.572 682.475Q364.26 681.426 363.999 680.363Q363.739 679.299 363.531 678.225Q363.323 677.15 363.168 676.066Q363.014 674.983 362.912 673.893Q362.811 672.803 362.764 671.709Q362.717 670.615 362.723 669.521Q362.73 668.426 362.79 667.333Q362.851 666.24 362.965 665.152Q363.08 664.063 363.247 662.981Q363.415 661.899 363.636 660.827Q363.857 659.755 364.13 658.695Q364.403 657.635 364.729 656.59Q365.054 655.545 365.43 654.517Q365.807 653.489 366.233 652.481Q366.66 651.473 367.135 650.487Q367.611 649.501 368.135 648.54Q368.658 647.578 369.229 646.644Q369.799 645.71 370.415 644.805Q371.03 643.899 371.69 643.026Q372.349 642.152 373.051 641.312Q373.753 640.472 374.495 639.667Q375.237 638.863 376.018 638.096Q376.799 637.329 377.617 636.601Q378.435 635.873 379.288 635.187Q380.14 634.5 381.026 633.857Q381.911 633.213 382.827 632.614Q383.743 632.015 384.688 631.461Q385.632 630.908 386.603 630.402Q387.573 629.896 388.568 629.438Q389.562 628.98 390.578 628.572Q391.594 628.164 392.628 627.806Q393.663 627.448 394.714 627.142Q395.764 626.836 396.829 626.581Q397.894 626.327 398.97 626.126Q400.046 625.924 401.13 625.776Q402.215 625.628 403.306 625.533Q404.396 625.439 405.49 625.398Z"/>
	<path fill="#E2E2E2" d="M403.047 644.322Q403.675 644.222 404.308 644.153Q404.941 644.084 405.576 644.047Q406.211 644.009 406.847 644.003Q407.483 643.997 408.119 644.022Q408.755 644.047 409.389 644.104Q410.023 644.16 410.653 644.248Q411.283 644.336 411.908 644.454Q412.533 644.573 413.152 644.722Q413.77 644.872 414.381 645.052Q414.991 645.231 415.592 645.441Q416.192 645.651 416.782 645.89Q417.372 646.128 417.949 646.396Q418.526 646.664 419.089 646.96Q419.653 647.256 420.201 647.579Q420.749 647.903 421.28 648.253Q421.811 648.603 422.325 648.978Q422.838 649.354 423.333 649.755Q423.827 650.156 424.301 650.58Q424.775 651.005 425.227 651.452Q425.68 651.9 426.109 652.369Q426.539 652.838 426.945 653.328Q427.351 653.818 427.733 654.327Q428.114 654.836 428.47 655.364Q428.826 655.891 429.155 656.435Q429.485 656.98 429.787 657.54Q430.089 658.1 430.363 658.674Q430.637 659.248 430.883 659.835Q431.128 660.422 431.345 661.021Q431.561 661.619 431.747 662.227Q431.934 662.836 432.09 663.453Q432.246 664.069 432.372 664.693Q432.497 665.317 432.592 665.946Q432.687 666.575 432.75 667.208Q432.814 667.841 432.846 668.477Q432.878 669.112 432.879 669.749Q432.88 670.385 432.849 671.021Q432.819 671.656 432.757 672.289Q432.695 672.923 432.602 673.552Q432.509 674.182 432.385 674.806Q432.261 675.43 432.106 676.047Q431.952 676.664 431.767 677.273Q431.582 677.882 431.367 678.481Q431.152 679.08 430.908 679.667Q430.664 680.255 430.392 680.83Q430.119 681.405 429.818 681.966Q429.518 682.526 429.19 683.072Q428.862 683.617 428.507 684.145Q428.153 684.674 427.772 685.184Q427.392 685.694 426.987 686.185Q426.583 686.676 426.154 687.146Q425.725 687.617 425.274 688.065Q424.823 688.514 424.35 688.94Q423.877 689.365 423.384 689.767Q422.891 690.169 422.378 690.546Q421.866 690.924 421.335 691.275Q420.805 691.626 420.258 691.951Q419.71 692.276 419.148 692.573Q418.585 692.871 418.009 693.14Q417.432 693.409 416.843 693.65Q416.254 693.89 415.654 694.101Q415.054 694.313 414.444 694.494Q413.834 694.675 413.216 694.826Q412.598 694.977 411.973 695.097Q411.348 695.218 410.718 695.307Q410.095 695.395 409.468 695.453Q408.841 695.511 408.212 695.538Q407.583 695.565 406.954 695.562Q406.325 695.558 405.696 695.524Q405.068 695.49 404.441 695.425Q403.815 695.36 403.193 695.265Q402.571 695.169 401.954 695.044Q401.337 694.918 400.728 694.762Q400.118 694.607 399.516 694.422Q398.914 694.237 398.323 694.022Q397.731 693.808 397.15 693.565Q396.569 693.322 396.001 693.051Q395.433 692.78 394.879 692.482Q394.325 692.183 393.786 691.858Q393.247 691.533 392.724 691.182Q392.202 690.831 391.697 690.455Q391.192 690.079 390.706 689.679Q390.22 689.279 389.755 688.855Q389.289 688.432 388.845 687.986Q388.4 687.54 387.978 687.073Q387.556 686.607 387.157 686.12Q386.758 685.633 386.383 685.127Q386.009 684.621 385.659 684.098Q385.31 683.574 384.986 683.034Q384.662 682.494 384.366 681.939Q384.069 681.384 383.799 680.815Q383.53 680.246 383.289 679.665Q383.047 679.084 382.835 678.491Q382.622 677.899 382.439 677.297Q382.255 676.694 382.101 676.084Q381.947 675.474 381.824 674.857Q381.7 674.24 381.606 673.617Q381.512 672.995 381.449 672.368Q381.386 671.742 381.354 671.113Q381.321 670.485 381.319 669.855Q381.317 669.226 381.346 668.597Q381.375 667.969 381.435 667.342Q381.494 666.715 381.585 666.092Q381.675 665.469 381.795 664.852Q381.915 664.234 382.066 663.622Q382.216 663.011 382.396 662.408Q382.576 661.805 382.785 661.211Q382.995 660.618 383.233 660.035Q383.471 659.452 383.737 658.882Q384.003 658.312 384.296 657.755Q384.59 657.198 384.911 656.656Q385.231 656.115 385.578 655.589Q385.924 655.064 386.296 654.556Q386.668 654.048 387.064 653.559Q387.46 653.069 387.879 652.6Q388.299 652.131 388.741 651.683Q389.183 651.234 389.646 650.808Q390.109 650.382 390.593 649.979Q391.076 649.576 391.579 649.197Q392.081 648.818 392.602 648.464Q393.122 648.11 393.659 647.782Q394.196 647.454 394.749 647.152Q395.301 646.851 395.868 646.577Q396.435 646.302 397.014 646.056Q397.593 645.81 398.184 645.592Q398.774 645.375 399.375 645.186Q399.975 644.997 400.584 644.838Q401.193 644.679 401.809 644.55Q402.425 644.421 403.047 644.322Z"/>
	<path d="M451.584 449.697C455.839 449.227 460.396 450.03 464.442 451.371Q465.276 451.648 466.096 451.966Q466.915 452.283 467.718 452.64Q468.521 452.998 469.306 453.394Q470.091 453.79 470.855 454.224Q471.62 454.658 472.362 455.129Q473.104 455.599 473.822 456.106Q474.541 456.613 475.233 457.154Q475.926 457.695 476.591 458.269Q477.257 458.843 477.893 459.449Q478.53 460.056 479.136 460.692Q479.742 461.329 480.316 461.994Q480.891 462.659 481.432 463.352Q481.973 464.045 482.48 464.763Q482.986 465.481 483.457 466.223Q483.928 466.966 484.362 467.73Q484.796 468.494 485.192 469.279Q485.569 470.053 485.908 470.845Q486.246 471.637 486.545 472.444Q486.845 473.252 487.104 474.073Q487.363 474.894 487.582 475.727Q487.801 476.56 487.978 477.402Q488.156 478.245 488.291 479.095Q488.427 479.946 488.521 480.802Q488.615 481.658 488.667 482.517Q488.719 483.377 488.728 484.238Q488.738 485.099 488.705 485.959Q488.672 486.82 488.597 487.678Q488.522 488.536 488.405 489.389Q488.288 490.242 488.13 491.088Q487.971 491.935 487.771 492.772Q487.57 493.61 487.329 494.436Q487.088 495.263 486.807 496.077C483.146 506.757 475.824 513.055 465.97 517.936C465.828 531.797 465.977 545.672 465.994 559.535C466.001 565.931 466.515 572.77 465.823 579.112C465.592 581.233 465.208 583.256 464.131 585.125C462.119 588.618 458.956 589.969 455.254 591.07C455.024 591.084 454.793 591.1 454.563 591.111C450.654 591.289 446.818 590.421 443.92 587.649C442.534 586.323 441.021 584.335 440.606 582.424C439.056 575.286 439.976 566.514 439.984 559.18L440.041 517.969C436.644 516.383 433.361 514.631 430.421 512.286Q429.764 511.769 429.133 511.221Q428.503 510.672 427.9 510.093Q427.298 509.513 426.725 508.904Q426.152 508.296 425.611 507.659Q425.069 507.022 424.56 506.36Q424.05 505.697 423.575 505.01Q423.099 504.322 422.658 503.612Q422.217 502.902 421.812 502.171Q421.407 501.44 421.039 500.689Q420.671 499.939 420.341 499.171Q420.011 498.403 419.72 497.62Q419.428 496.836 419.176 496.039Q418.924 495.242 418.712 494.434Q418.5 493.625 418.329 492.807Q418.157 491.989 418.027 491.164Q417.896 490.338 417.807 489.507C416.78 480.102 419.329 470.289 425.341 462.914C432.052 454.682 441.243 450.816 451.584 449.697Z"/>
	<path fill="#E2E2E2" d="M450.225 472.191Q450.54 472.122 450.859 472.069Q451.177 472.016 451.498 471.978Q451.819 471.941 452.141 471.919Q452.463 471.898 452.786 471.892Q453.109 471.886 453.431 471.896Q453.754 471.905 454.076 471.931Q454.398 471.957 454.718 471.998Q455.038 472.04 455.356 472.097Q455.673 472.154 455.988 472.226Q456.303 472.299 456.613 472.387Q456.924 472.475 457.23 472.578Q457.536 472.681 457.836 472.799Q458.137 472.917 458.431 473.049Q458.726 473.182 459.013 473.328Q459.301 473.475 459.581 473.636Q459.861 473.796 460.133 473.971Q460.405 474.145 460.668 474.332Q460.931 474.519 461.184 474.719Q461.438 474.919 461.681 475.132Q461.924 475.344 462.157 475.568Q462.39 475.791 462.611 476.026Q462.833 476.261 463.042 476.507Q463.252 476.752 463.449 477.008Q463.647 477.263 463.831 477.528Q464.016 477.793 464.187 478.067Q464.359 478.34 464.516 478.622Q464.674 478.904 464.818 479.193Q464.962 479.482 465.091 479.777Q465.221 480.073 465.336 480.375Q465.45 480.677 465.55 480.984Q465.65 481.291 465.735 481.602Q465.82 481.914 465.889 482.229Q465.958 482.544 466.012 482.863Q466.066 483.181 466.104 483.502Q466.142 483.822 466.165 484.144Q466.187 484.466 466.194 484.789Q466.2 485.112 466.191 485.435Q466.182 485.757 466.157 486.079Q466.132 486.401 466.091 486.721Q466.05 487.042 465.994 487.36Q465.937 487.677 465.865 487.992Q465.794 488.307 465.706 488.618Q465.619 488.929 465.517 489.235Q465.414 489.541 465.297 489.842Q465.18 490.143 465.048 490.437Q464.916 490.732 464.77 491.02Q464.624 491.308 464.463 491.588Q464.303 491.869 464.13 492.141Q463.956 492.413 463.769 492.676Q463.583 492.94 463.383 493.194Q463.184 493.447 462.972 493.691Q462.76 493.935 462.537 494.168Q462.314 494.401 462.079 494.623Q461.845 494.845 461.6 495.055Q461.354 495.266 461.099 495.463Q460.844 495.661 460.58 495.846Q460.315 496.032 460.042 496.204Q459.769 496.376 459.487 496.534Q459.206 496.692 458.917 496.837Q458.629 496.981 458.333 497.111Q458.038 497.241 457.736 497.357Q457.434 497.472 457.128 497.573Q456.821 497.673 456.509 497.759Q456.198 497.844 455.883 497.914Q455.567 497.984 455.248 498.039Q454.929 498.093 454.608 498.132Q454.286 498.171 453.963 498.194Q453.64 498.217 453.317 498.224Q452.993 498.231 452.67 498.222Q452.346 498.214 452.023 498.189Q451.7 498.164 451.379 498.124Q451.058 498.083 450.739 498.027Q450.421 497.971 450.105 497.899Q449.789 497.827 449.478 497.74Q449.166 497.653 448.859 497.55Q448.552 497.448 448.25 497.33Q447.949 497.213 447.653 497.081Q447.358 496.949 447.069 496.802Q446.78 496.656 446.499 496.495Q446.218 496.335 445.945 496.161Q445.672 495.987 445.408 495.799Q445.144 495.612 444.89 495.412Q444.635 495.212 444.391 495Q444.146 494.787 443.913 494.563Q443.679 494.339 443.457 494.104Q443.234 493.869 443.024 493.623Q442.813 493.377 442.615 493.121Q442.417 492.865 442.232 492.6Q442.046 492.335 441.874 492.06Q441.702 491.786 441.544 491.504Q441.385 491.222 441.241 490.932Q441.096 490.642 440.966 490.346Q440.837 490.049 440.721 489.747Q440.606 489.444 440.506 489.137Q440.406 488.829 440.321 488.516Q440.236 488.204 440.166 487.888Q440.096 487.572 440.042 487.253Q439.989 486.933 439.95 486.612Q439.912 486.291 439.89 485.968Q439.867 485.645 439.861 485.321Q439.854 484.997 439.864 484.674Q439.873 484.35 439.899 484.027Q439.924 483.705 439.965 483.384Q440.006 483.063 440.063 482.744Q440.12 482.425 440.193 482.11Q440.265 481.794 440.353 481.483Q440.441 481.171 440.544 480.864Q440.647 480.557 440.765 480.256Q440.883 479.955 441.016 479.659Q441.149 479.364 441.296 479.076Q441.443 478.787 441.604 478.506Q441.765 478.226 441.94 477.953Q442.114 477.681 442.302 477.417Q442.49 477.153 442.691 476.899Q442.891 476.645 443.104 476.401Q443.317 476.157 443.541 475.924Q443.766 475.691 444.002 475.469Q444.237 475.247 444.484 475.037Q444.73 474.827 444.986 474.629Q445.243 474.432 445.508 474.247Q445.774 474.062 446.049 473.89Q446.323 473.719 446.606 473.561Q446.889 473.403 447.179 473.259Q447.469 473.116 447.765 472.986Q448.062 472.857 448.365 472.742Q448.668 472.628 448.976 472.528Q449.284 472.429 449.596 472.344Q449.909 472.26 450.225 472.191Z"/>
	<path d="M327.211 627.992L346.486 627.96L346.529 680.908C346.531 688.583 347.626 703.376 345.796 710.045C345.106 710.352 344.443 710.644 343.718 710.86C340.393 711.848 332.117 711.93 328.966 710.245C325.293 706.033 326.928 685.793 326.987 679.555L291.774 679.683C291.798 686.094 293.241 704.181 291.299 709.176C290.216 710.29 289.266 710.825 287.731 711.047C284.294 711.545 277.043 712.144 274.348 709.741C273.381 708.878 273.103 708.186 272.948 706.937C272.328 701.944 272.618 696.652 272.609 691.615L272.579 666.709L272.577 644.662C272.58 640.37 272.277 635.726 272.93 631.482C273.147 630.076 273.748 629.198 274.595 628.083C280.365 627.868 286.183 628.009 291.959 628.018C292.164 639.639 291.976 651.297 291.964 662.922C303.646 663.127 315.364 662.942 327.049 662.94L327.211 627.992Z"/>
	<path fill="#79AAB9" d="M568.387 356.735Q569.235 356.688 570.085 356.682Q570.934 356.676 571.783 356.712Q572.632 356.748 573.478 356.826Q574.324 356.903 575.165 357.022Q576.006 357.141 576.841 357.301Q577.675 357.461 578.501 357.662Q579.326 357.863 580.141 358.104Q580.955 358.345 581.757 358.626Q582.559 358.907 583.346 359.227Q584.133 359.547 584.904 359.905Q585.674 360.263 586.426 360.658Q587.178 361.053 587.909 361.485Q588.641 361.917 589.351 362.384Q590.06 362.851 590.746 363.353Q591.432 363.854 592.092 364.389Q592.753 364.923 593.386 365.49Q594.019 366.056 594.624 366.652Q595.229 367.249 595.804 367.875Q596.378 368.5 596.922 369.153Q597.465 369.806 597.976 370.485Q598.487 371.164 598.964 371.867Q599.44 372.57 599.882 373.296Q600.324 374.022 600.729 374.768Q601.135 375.515 601.503 376.28Q601.872 377.046 602.202 377.828Q602.533 378.611 602.825 379.409Q603.116 380.207 603.368 381.018Q603.621 381.83 603.833 382.652Q604.045 383.475 604.216 384.307Q604.388 385.139 604.518 385.979Q604.648 386.818 604.737 387.663Q604.827 388.508 604.874 389.356Q604.922 390.204 604.927 391.054Q604.933 391.903 604.897 392.752Q604.862 393.601 604.784 394.447Q604.707 395.293 604.588 396.134Q604.469 396.975 604.309 397.81Q604.149 398.644 603.948 399.47Q603.748 400.295 603.507 401.11Q603.266 401.924 602.985 402.726Q602.704 403.528 602.385 404.315Q602.065 405.102 601.707 405.873Q601.349 406.643 600.954 407.395Q600.559 408.147 600.127 408.879Q599.695 409.611 599.228 410.32Q598.761 411.03 598.26 411.716Q597.758 412.402 597.224 413.062Q596.69 413.723 596.123 414.356Q595.557 414.99 594.961 415.594Q594.364 416.199 593.739 416.774Q593.113 417.349 592.46 417.893Q591.807 418.436 591.129 418.947Q590.45 419.458 589.747 419.935Q589.044 420.412 588.318 420.853Q587.592 421.295 586.846 421.701Q586.099 422.107 585.334 422.475Q584.569 422.844 583.786 423.174Q583.003 423.505 582.206 423.797Q581.408 424.089 580.596 424.341Q579.785 424.593 578.963 424.805Q578.14 425.018 577.308 425.189Q576.476 425.361 575.636 425.491Q574.797 425.622 573.952 425.711Q573.107 425.8 572.259 425.848Q571.411 425.896 570.561 425.902Q569.711 425.908 568.862 425.872Q568.013 425.836 567.167 425.759Q566.321 425.681 565.48 425.563Q564.638 425.444 563.804 425.284Q562.969 425.124 562.143 424.923Q561.318 424.722 560.503 424.481Q559.688 424.24 558.886 423.96Q558.084 423.679 557.297 423.359Q556.51 423.04 555.739 422.682Q554.968 422.324 554.216 421.929Q553.464 421.533 552.732 421.102Q552 420.67 551.29 420.203Q550.581 419.735 549.895 419.234Q549.209 418.733 548.548 418.198Q547.888 417.664 547.254 417.097Q546.62 416.531 546.015 415.935Q545.41 415.338 544.835 414.712Q544.26 414.087 543.717 413.434Q543.173 412.781 542.662 412.102Q542.151 411.423 541.675 410.719Q541.198 410.016 540.756 409.29Q540.314 408.565 539.908 407.818Q539.502 407.071 539.134 406.306Q538.765 405.54 538.435 404.757Q538.104 403.975 537.812 403.177Q537.521 402.379 537.268 401.567Q537.016 400.756 536.804 399.933Q536.592 399.11 536.42 398.278Q536.249 397.446 536.118 396.606Q535.988 395.766 535.899 394.921Q535.81 394.076 535.762 393.228Q535.714 392.38 535.709 391.53Q535.703 390.68 535.739 389.831Q535.774 388.982 535.852 388.136Q535.929 387.29 536.048 386.449Q536.167 385.607 536.327 384.773Q536.487 383.938 536.688 383.113Q536.889 382.287 537.13 381.472Q537.371 380.657 537.652 379.855Q537.933 379.053 538.252 378.266Q538.572 377.479 538.93 376.708Q539.288 375.938 539.684 375.185Q540.079 374.433 540.511 373.701Q540.943 372.97 541.41 372.26Q541.877 371.55 542.379 370.864Q542.88 370.178 543.415 369.518Q543.949 368.857 544.516 368.224Q545.082 367.59 545.679 366.985Q546.276 366.381 546.901 365.806Q547.527 365.231 548.18 364.687Q548.833 364.144 549.512 363.633Q550.191 363.122 550.895 362.645Q551.598 362.168 552.324 361.727Q553.05 361.285 553.796 360.879Q554.543 360.474 555.309 360.105Q556.074 359.737 556.857 359.406Q557.64 359.076 558.438 358.784Q559.236 358.492 560.047 358.24Q560.859 357.988 561.682 357.776Q562.505 357.564 563.337 357.392Q564.169 357.221 565.009 357.091Q565.849 356.96 566.694 356.871Q567.539 356.782 568.387 356.735Z"/>
	<path fill="#E2E2E2" d="M567.118 378.14Q567.437 378.063 567.76 378.001Q568.083 377.939 568.408 377.893Q568.733 377.848 569.06 377.817Q569.387 377.787 569.715 377.773Q570.044 377.759 570.372 377.761Q570.701 377.763 571.029 377.781Q571.357 377.799 571.683 377.833Q572.01 377.867 572.335 377.917Q572.659 377.966 572.981 378.032Q573.303 378.097 573.621 378.178Q573.94 378.26 574.254 378.356Q574.568 378.453 574.877 378.564Q575.186 378.676 575.489 378.803Q575.792 378.929 576.088 379.07Q576.385 379.212 576.674 379.367Q576.964 379.523 577.245 379.692Q577.527 379.861 577.799 380.044Q578.072 380.227 578.336 380.423Q578.6 380.619 578.853 380.828Q579.107 381.036 579.35 381.257Q579.594 381.478 579.826 381.71Q580.058 381.942 580.279 382.185Q580.5 382.429 580.708 382.682Q580.917 382.936 581.113 383.2Q581.309 383.463 581.492 383.736Q581.675 384.009 581.844 384.29Q582.014 384.572 582.169 384.861Q582.325 385.151 582.466 385.447Q582.607 385.744 582.734 386.047Q582.86 386.35 582.972 386.659Q583.084 386.968 583.18 387.282Q583.277 387.596 583.358 387.914Q583.439 388.232 583.505 388.554Q583.57 388.876 583.62 389.201Q583.67 389.525 583.704 389.852Q583.738 390.179 583.755 390.507Q583.773 390.835 583.775 391.163Q583.777 391.492 583.763 391.82Q583.749 392.148 583.719 392.475Q583.689 392.802 583.643 393.127Q583.598 393.453 583.536 393.775Q583.474 394.098 583.397 394.417Q583.32 394.736 583.227 395.052Q583.134 395.367 583.026 395.677Q582.918 395.987 582.795 396.292Q582.672 396.596 582.535 396.895Q582.397 397.193 582.245 397.484Q582.093 397.775 581.927 398.059Q581.761 398.342 581.581 398.617Q581.402 398.892 581.209 399.158Q581.016 399.424 580.811 399.68Q580.605 399.936 580.387 400.182Q580.17 400.428 579.94 400.663Q579.711 400.898 579.47 401.122Q579.229 401.345 578.978 401.557Q578.727 401.769 578.466 401.968Q578.205 402.167 577.934 402.353Q577.663 402.539 577.384 402.712Q577.105 402.885 576.817 403.044Q576.53 403.203 576.235 403.347Q575.94 403.492 575.638 403.622Q575.337 403.753 575.029 403.868Q574.722 403.983 574.409 404.084Q574.096 404.184 573.779 404.269Q573.349 404.384 572.913 404.47Q572.477 404.557 572.036 404.614Q571.595 404.672 571.151 404.7Q570.707 404.729 570.262 404.728Q569.817 404.727 569.374 404.696Q568.93 404.666 568.489 404.607Q568.048 404.547 567.613 404.459Q567.177 404.37 566.747 404.253Q566.318 404.136 565.898 403.992Q565.477 403.847 565.067 403.674Q564.657 403.502 564.26 403.303Q563.862 403.104 563.478 402.879Q563.094 402.654 562.726 402.405Q562.358 402.155 562.007 401.882Q561.656 401.609 561.324 401.313Q560.992 401.017 560.68 400.7Q560.368 400.383 560.078 400.046Q559.787 399.709 559.52 399.354Q559.253 398.999 559.009 398.626Q558.766 398.254 558.547 397.867Q558.329 397.479 558.136 397.078Q557.944 396.677 557.778 396.265Q557.613 395.852 557.475 395.429Q557.337 395.006 557.227 394.575Q557.117 394.145 557.036 393.707Q556.954 393.27 556.902 392.828Q556.85 392.387 556.827 391.943Q556.804 391.498 556.81 391.054Q556.816 390.609 556.852 390.166Q556.887 389.722 556.952 389.282Q557.017 388.842 557.11 388.407Q557.204 387.973 557.326 387.545Q557.448 387.117 557.598 386.699Q557.748 386.28 557.925 385.872Q558.102 385.464 558.306 385.069Q558.51 384.673 558.739 384.292Q558.969 383.911 559.222 383.546Q559.476 383.181 559.754 382.833Q560.031 382.485 560.331 382.157Q560.631 381.828 560.952 381.52Q561.273 381.212 561.613 380.926Q561.953 380.639 562.312 380.376Q562.67 380.113 563.046 379.874Q563.421 379.635 563.811 379.421Q564.201 379.207 564.604 379.02Q565.007 378.832 565.422 378.671Q565.837 378.511 566.261 378.378Q566.686 378.245 567.118 378.14Z"/>
	<path d="M663.48 627.918L682.77 627.886C690.046 647.864 698.735 667.507 706.558 687.291C709.126 693.784 713.427 702.089 714.597 708.833C713.991 709.933 713.584 710.338 712.372 710.769C709.368 711.837 700.287 712.169 697.418 710.657C693.857 708.779 691.418 699.017 690.001 695.258C687.613 695.163 685.206 695.197 682.815 695.17L655.609 695.15C653.945 699.342 652.671 706.674 649.168 709.572C645.806 712.352 639.658 711.755 635.565 711.267C633.975 711.077 632.427 710.82 631.406 709.485C631.887 703.135 636.147 695.359 638.488 689.361C646.529 668.752 655.152 648.408 663.48 627.918Z"/>
	<path fill="#E2E2E2" d="M672.729 650.869C675.072 653.25 682.243 675.174 683.942 679.79L674.125 679.82Q667.918 679.796 661.714 679.594C665.11 669.925 668.958 660.397 672.729 650.869Z"/>
	<path d="M520.694 628.009L540.033 628.002L540.073 646.125C540.006 663.069 544.049 689.329 531.487 702.335C524.361 709.713 514.059 712.41 504.082 712.568C493.684 712.733 482.139 710.648 474.545 702.95C470.732 699.084 468.592 694.317 467.365 689.099C465.289 680.269 466.035 670.551 465.961 661.522Q465.739 644.779 465.781 628.034L485.455 628.011L485.454 660.869C485.457 667.654 484.962 674.894 486.05 681.595C486.58 684.858 487.42 688.059 489.689 690.564C493.053 694.278 497.746 695.598 502.62 695.82C507.292 696.033 512.334 694.573 515.77 691.305C518.25 688.947 519.319 685.963 519.967 682.669C521.272 676.027 520.617 668.562 520.62 661.777L520.694 628.009Z"/>
	<path d="M583.678 626.667C592.973 625.431 610.185 627.107 617.744 633.265C618.555 633.926 619.452 635.089 619.45 636.178C619.445 638.853 615.655 645.987 613.679 647.726C612.801 648.499 612.422 648.745 611.28 648.499C609.392 648.093 607.366 646.833 605.589 646.048C600.751 643.909 595.727 642.681 590.432 642.462C586.284 642.29 582.04 642.804 578.951 645.854C577.646 647.141 576.376 648.89 576.541 650.827C577.184 658.383 595.257 661.24 601.063 663.183C606.688 665.065 612.731 667.365 617.227 671.361C621.362 675.038 623.149 680.662 623.423 686.081Q623.458 686.664 623.463 687.247Q623.469 687.831 623.445 688.414Q623.421 688.998 623.367 689.579Q623.313 690.16 623.23 690.738Q623.147 691.316 623.035 691.889Q622.923 692.462 622.782 693.028Q622.641 693.594 622.471 694.153Q622.302 694.712 622.104 695.261Q621.907 695.81 621.681 696.349Q621.456 696.887 621.204 697.414Q620.952 697.94 620.673 698.453Q620.395 698.966 620.091 699.465Q619.786 699.963 619.457 700.445Q619.128 700.927 618.775 701.392Q618.422 701.857 618.046 702.304Q617.67 702.75 617.272 703.177C610.233 710.646 599.634 712.405 589.867 712.568Q587.474 712.603 585.084 712.471C574.661 711.867 562.812 708.796 555.654 700.769C557.145 696.918 559.35 692.332 561.933 689.112C562.318 688.632 563.363 687.459 564.019 687.503C564.996 687.568 568.062 689.567 569.021 690.094C576.957 694.455 585.93 697.602 595.153 696.465C597.846 696.133 600.339 695.158 601.979 692.9C603.177 691.251 604.131 688.478 603.603 686.428C601.714 679.095 584.056 677.214 577.7 675.253C573.825 674.057 569.94 672.422 566.612 670.076C561.806 666.689 558.491 661.697 557.597 655.849C556.638 649.569 558.103 642.955 561.873 637.812C567.249 630.481 575.111 627.87 583.678 626.667Z"/>
	<path d="M728.645 627.986C734.017 627.894 742.525 626.665 747.506 628.591L747.376 630.029L747.84 630.1L747.856 629.953C748.559 637.89 749.274 705.979 747.083 709.916C745.052 710.756 742.999 711.209 740.81 711.414C736.855 711.785 732.532 712.107 729.299 709.424C727.545 703.546 728.72 684.496 728.739 677.533L728.645 627.986Z"/>
</svg>
