<?xml version="1.0" encoding="utf-8" ?>
<svg xmlns="http://www.w3.org/2000/svg" xmlns:xlink="http://www.w3.org/1999/xlink" width="1024" height="1024">
	<path d="M507.987 245.106C512.69 244.844 517.024 245.256 521.432 246.993C530.266 250.476 538.467 257.896 546.073 263.52Q557.315 271.799 568.724 279.846L643.662 332.994C657.026 342.444 671.092 351.341 683.958 361.449C687.401 364.155 692.127 367.912 693.804 372.041C695.055 375.123 695.354 378.421 695.466 381.711C695.725 389.283 695.189 396.907 695.128 404.483L695.064 451.06L695.285 578.516C695.271 580.243 695.367 582.03 694.597 583.624C694.51 583.805 694.407 583.978 694.313 584.156C694.203 584.366 694.1 584.579 693.987 584.787C692.53 587.476 690.005 589.606 687.024 590.406C683.812 591.269 680.087 590.778 677.221 589.095C674.463 587.474 672.568 585.032 671.786 581.922C669.861 574.265 671.081 553.624 671.105 544.777L671.029 443.5C671.075 432.309 673.035 393.854 670.522 385.518C669.666 382.681 667.532 380.496 665.269 378.698C657.453 372.49 648.714 367.153 640.544 361.405Q615.451 343.71 590.546 325.753L543.996 292.528C534.928 285.988 525.708 278.003 515.831 272.835L515.208 272.514C513.856 271.99 512.537 271.687 511.092 271.947C507.936 272.515 504.987 274.583 502.364 276.325C493.102 282.474 484.283 289.392 475.259 295.891L426.09 330.934Q408.288 343.721 390.324 356.279C380.421 363.148 370.232 369.825 360.708 377.207C357.627 379.596 354.931 381.697 352.684 384.921C350.947 397.671 352.048 412.842 352.054 425.904L352.058 526.514C352.068 542.565 352.92 558.743 352.189 574.769C352.045 577.932 352.013 582.541 350.511 585.362C349.103 588.004 346.052 589.733 343.261 590.5C339.893 591.425 336.133 590.966 333.155 589.108C330.736 587.599 328.847 585.201 328.218 582.393C325.837 571.767 327.651 559.071 327.872 548.168C328.071 538.326 327.957 528.461 327.961 518.617L327.939 426.328C327.928 410.65 327.233 394.627 328.007 378.992C328.161 375.873 328.773 372.699 330.462 370.023C332.483 366.823 336.184 364.091 339.179 361.83C348.755 354.601 359.04 348.239 368.851 341.326L429.051 298.503C452.043 282.238 474.343 264.492 498.074 249.338C501.221 247.328 504.288 245.849 507.987 245.106Z"/>
	<path d="M451.8 355.65C454.609 355.405 457.405 355.751 460.174 356.223Q461.021 356.365 461.859 356.55Q462.697 356.734 463.525 356.96Q464.354 357.186 465.169 357.453Q465.985 357.72 466.787 358.028Q467.588 358.335 468.373 358.683Q469.158 359.03 469.925 359.416Q470.692 359.802 471.438 360.225Q472.185 360.649 472.909 361.11Q473.634 361.57 474.334 362.066Q475.035 362.563 475.709 363.093Q476.384 363.624 477.032 364.187Q477.679 364.751 478.298 365.346Q478.916 365.941 479.504 366.567Q480.092 367.192 480.648 367.846Q481.205 368.5 481.727 369.181Q482.25 369.862 482.738 370.568C490.097 381.028 489.586 392.002 487.426 404.04C504.366 415.659 520.054 429.417 536.388 441.894C540.524 445.053 546.251 450.497 551.033 452.383C552.424 452.932 558.841 449.705 561.094 449.223C567.432 447.866 574.117 447.738 580.399 449.433Q581.234 449.664 582.056 449.936Q582.879 450.208 583.687 450.521Q584.494 450.834 585.285 451.187Q586.077 451.54 586.849 451.932Q587.621 452.324 588.373 452.754Q589.125 453.184 589.855 453.651Q590.584 454.119 591.289 454.622Q591.995 455.125 592.674 455.663Q593.353 456.2 594.004 456.771Q594.656 457.342 595.278 457.945Q595.9 458.548 596.491 459.182Q597.082 459.815 597.641 460.477Q598.2 461.139 598.724 461.828Q599.249 462.517 599.739 463.232Q600.229 463.946 600.682 464.684Q601.136 465.422 601.552 466.182C606.149 474.462 607.644 484.621 604.908 493.762C601.501 505.144 593.489 511.931 583.375 517.375C583.353 527.032 584.842 577.937 582.354 583.969C580.819 587.691 577.874 589.227 574.338 590.66C573.942 590.69 573.545 590.711 573.148 590.719C568.864 590.802 565.12 590.078 562.013 586.931C559.74 584.629 559.288 581.88 558.893 578.787C557.93 571.246 558.853 563.354 558.939 555.751C559.082 543.19 558.977 530.615 558.928 518.052C551.475 515.472 544.297 510.105 539.849 503.581C533.578 494.382 533.559 482.725 535.502 472.128Q502.644 447.477 470.511 421.887C466.598 423.713 462.942 425.355 458.659 426.113Q457.83 426.256 456.996 426.359Q456.161 426.461 455.322 426.522Q454.483 426.584 453.643 426.603Q452.802 426.623 451.961 426.601Q451.121 426.579 450.282 426.516Q449.443 426.453 448.609 426.348Q447.775 426.244 446.946 426.099Q446.118 425.953 445.298 425.767Q444.478 425.581 443.668 425.354Q442.858 425.128 442.06 424.862Q441.262 424.596 440.479 424.291Q439.695 423.986 438.927 423.642Q438.16 423.299 437.41 422.918Q436.66 422.537 435.93 422.12Q435.2 421.703 434.491 421.25Q433.782 420.797 433.097 420.31Q432.368 419.791 431.667 419.237Q430.965 418.682 430.292 418.093Q429.619 417.504 428.977 416.882Q428.334 416.26 427.724 415.606Q427.113 414.953 426.536 414.269Q425.959 413.586 425.417 412.875Q424.875 412.163 424.37 411.425Q423.864 410.688 423.396 409.926Q422.928 409.163 422.499 408.379Q422.07 407.594 421.68 406.789Q421.291 405.984 420.943 405.16Q420.594 404.336 420.288 403.496Q419.981 402.656 419.717 401.801Q419.453 400.947 419.232 400.08Q419.011 399.214 418.834 398.337Q418.657 397.46 418.524 396.576C417.049 387.339 419.076 377.985 424.637 370.42C431.437 361.171 440.748 357.321 451.8 355.65ZM455.756 403.798Q456.067 403.742 456.376 403.671Q456.684 403.6 456.989 403.514Q457.293 403.428 457.593 403.327Q457.893 403.227 458.188 403.112Q458.482 402.996 458.771 402.867Q459.06 402.737 459.342 402.594Q459.624 402.451 459.899 402.294Q460.173 402.137 460.44 401.967Q460.707 401.797 460.965 401.614Q461.223 401.431 461.472 401.236Q461.721 401.04 461.96 400.833Q462.199 400.626 462.428 400.407Q462.657 400.189 462.875 399.959Q463.092 399.73 463.299 399.49Q463.505 399.25 463.7 399.001Q463.894 398.751 464.076 398.492Q464.258 398.234 464.427 397.966Q464.597 397.699 464.753 397.424Q464.909 397.148 465.051 396.866Q465.193 396.583 465.322 396.294Q465.45 396.005 465.564 395.71Q465.679 395.415 465.778 395.115Q465.878 394.814 465.963 394.51Q466.048 394.205 466.118 393.896Q466.188 393.588 466.243 393.276Q466.298 392.965 466.337 392.651Q466.377 392.337 466.401 392.021Q466.425 391.706 466.434 391.389Q466.443 391.073 466.437 390.757Q466.43 390.441 466.408 390.125Q466.386 389.809 466.349 389.495Q466.312 389.181 466.259 388.869Q466.206 388.557 466.139 388.248Q466.071 387.939 465.988 387.633Q465.906 387.328 465.808 387.027Q465.711 386.726 465.598 386.43Q465.486 386.134 465.36 385.844Q465.234 385.554 465.093 385.27Q464.953 384.987 464.799 384.71Q464.645 384.434 464.478 384.165Q464.311 383.897 464.13 383.637Q463.95 383.376 463.758 383.125Q463.565 382.874 463.36 382.633Q463.156 382.392 462.94 382.161Q462.723 381.93 462.496 381.709Q462.269 381.489 462.032 381.28Q461.794 381.071 461.546 380.874Q461.299 380.677 461.042 380.492Q460.785 380.307 460.52 380.135Q460.254 379.963 459.981 379.804Q459.707 379.645 459.426 379.5Q459.145 379.355 458.857 379.223Q458.569 379.092 458.276 378.974Q457.982 378.857 457.682 378.754Q457.383 378.651 457.079 378.563Q456.776 378.475 456.468 378.401Q456.16 378.328 455.849 378.27Q455.538 378.212 455.224 378.169Q454.911 378.126 454.596 378.098Q454.28 378.071 453.964 378.058Q453.648 378.046 453.332 378.049Q453.015 378.052 452.7 378.071Q452.384 378.09 452.069 378.124Q451.755 378.158 451.442 378.207Q451.019 378.274 450.602 378.368Q450.185 378.462 449.775 378.584Q449.365 378.705 448.964 378.853Q448.563 379.002 448.172 379.176Q447.781 379.35 447.403 379.55Q447.025 379.75 446.661 379.974Q446.297 380.198 445.948 380.446Q445.599 380.693 445.268 380.963Q444.936 381.234 444.623 381.525Q444.31 381.816 444.016 382.128Q443.723 382.439 443.451 382.769Q443.179 383.099 442.929 383.446Q442.679 383.793 442.453 384.156Q442.226 384.519 442.024 384.896Q441.822 385.273 441.646 385.662Q441.469 386.052 441.318 386.452Q441.167 386.852 441.043 387.262Q440.919 387.671 440.822 388.087Q440.725 388.504 440.656 388.926Q440.587 389.348 440.546 389.774Q440.505 390.2 440.491 390.627Q440.478 391.055 440.493 391.482Q440.508 391.91 440.552 392.335Q440.595 392.761 440.666 393.182Q440.737 393.604 440.836 394.02Q440.934 394.436 441.06 394.845Q441.186 395.254 441.339 395.653Q441.491 396.053 441.67 396.442Q441.848 396.83 442.052 397.206Q442.256 397.583 442.484 397.944Q442.712 398.306 442.963 398.652Q443.214 398.998 443.488 399.327Q443.762 399.656 444.056 399.966Q444.351 400.276 444.665 400.566Q444.98 400.856 445.313 401.124Q445.646 401.393 445.995 401.639Q446.345 401.885 446.711 402.108Q447.076 402.33 447.455 402.528Q447.834 402.726 448.225 402.899Q448.617 403.071 449.019 403.218Q449.421 403.364 449.831 403.484Q450.242 403.604 450.659 403.696Q451.077 403.788 451.5 403.853Q451.923 403.918 452.349 403.955Q452.775 403.991 453.203 404Q453.63 404.008 454.058 403.989Q454.485 403.969 454.91 403.921Q455.335 403.874 455.756 403.798ZM572.253 496.005Q572.557 495.958 572.858 495.896Q573.159 495.834 573.457 495.758Q573.755 495.681 574.049 495.59Q574.342 495.499 574.631 495.393Q574.92 495.288 575.203 495.168Q575.487 495.048 575.764 494.915Q576.041 494.782 576.311 494.635Q576.581 494.488 576.844 494.328Q577.107 494.169 577.361 493.996Q577.616 493.823 577.862 493.638Q578.107 493.453 578.344 493.257Q578.58 493.06 578.806 492.852Q579.033 492.644 579.249 492.425Q579.465 492.206 579.669 491.976Q579.874 491.747 580.068 491.508Q580.261 491.269 580.442 491.021Q580.624 490.772 580.793 490.515Q580.962 490.258 581.118 489.993Q581.274 489.729 581.417 489.456Q581.56 489.184 581.689 488.905Q581.818 488.626 581.934 488.341Q582.05 488.056 582.151 487.766Q582.252 487.475 582.339 487.18Q582.426 486.885 582.499 486.587Q582.571 486.288 582.629 485.986Q582.686 485.684 582.729 485.379Q582.772 485.075 582.799 484.768Q582.827 484.462 582.84 484.155Q582.852 483.847 582.85 483.54Q582.847 483.232 582.83 482.925Q582.812 482.618 582.779 482.313Q582.747 482.007 582.699 481.703Q582.651 481.399 582.589 481.098Q582.526 480.797 582.449 480.499Q582.372 480.202 582.28 479.908Q582.188 479.615 582.082 479.326Q581.976 479.037 581.856 478.754Q581.736 478.471 581.602 478.194Q581.468 477.918 581.32 477.648Q581.173 477.378 581.013 477.115Q580.852 476.853 580.679 476.599Q580.506 476.345 580.321 476.099Q580.135 475.854 579.938 475.618Q579.741 475.382 579.532 475.156Q579.324 474.93 579.104 474.715Q578.885 474.499 578.655 474.295Q578.425 474.091 578.186 473.898Q577.946 473.705 577.697 473.524Q577.449 473.343 577.191 473.175Q576.934 473.006 576.669 472.851Q576.404 472.695 576.131 472.553Q575.858 472.411 575.579 472.282Q575.3 472.153 575.015 472.038Q574.729 471.923 574.439 471.822Q574.148 471.722 573.853 471.635Q573.558 471.549 573.259 471.477Q572.96 471.405 572.658 471.348Q572.356 471.291 572.051 471.249Q571.746 471.207 571.44 471.18Q571.134 471.153 570.826 471.141Q570.519 471.129 570.212 471.132Q569.904 471.136 569.597 471.154Q569.29 471.172 568.984 471.205Q568.679 471.239 568.375 471.287Q568.072 471.335 567.772 471.398Q567.472 471.461 567.175 471.539Q566.878 471.616 566.586 471.708Q566.293 471.8 566.005 471.907Q565.718 472.013 565.436 472.133Q565.154 472.253 564.878 472.387Q564.602 472.521 564.333 472.668Q564.064 472.816 563.802 472.976Q563.541 473.136 563.287 473.309Q563.034 473.482 562.789 473.667Q562.545 473.852 562.31 474.049Q562.075 474.246 561.849 474.454Q561.624 474.662 561.409 474.881Q561.195 475.1 560.991 475.329Q560.787 475.559 560.595 475.798Q560.402 476.036 560.222 476.285Q560.042 476.533 559.874 476.789Q559.706 477.046 559.55 477.31Q559.395 477.575 559.253 477.847Q559.111 478.118 558.982 478.397Q558.854 478.675 558.739 478.96Q558.624 479.244 558.524 479.534Q558.423 479.823 558.336 480.118Q558.25 480.412 558.178 480.71Q558.106 481.008 558.049 481.31Q557.992 481.611 557.95 481.915Q557.907 482.218 557.88 482.524Q557.852 482.829 557.84 483.136Q557.828 483.442 557.83 483.749Q557.833 484.056 557.851 484.362Q557.868 484.668 557.901 484.973Q557.933 485.278 557.981 485.581Q558.029 485.884 558.091 486.184Q558.153 486.485 558.23 486.781Q558.307 487.078 558.399 487.371Q558.49 487.664 558.596 487.952Q558.701 488.24 558.821 488.522Q558.941 488.805 559.074 489.081Q559.207 489.357 559.354 489.626Q559.501 489.896 559.66 490.157Q559.82 490.419 559.993 490.673Q560.165 490.927 560.35 491.171Q560.534 491.416 560.731 491.652Q560.927 491.888 561.135 492.113Q561.342 492.339 561.561 492.554Q561.779 492.769 562.008 492.974Q562.237 493.178 562.475 493.371Q562.714 493.563 562.961 493.744Q563.209 493.925 563.465 494.094Q563.722 494.262 563.986 494.418Q564.25 494.574 564.521 494.717Q564.793 494.859 565.071 494.988Q565.349 495.118 565.633 495.233Q565.918 495.348 566.207 495.45Q566.497 495.551 566.791 495.638Q567.085 495.725 567.383 495.797Q567.681 495.87 567.982 495.928Q568.283 495.986 568.587 496.029Q568.891 496.072 569.196 496.1Q569.501 496.128 569.808 496.141Q570.114 496.154 570.421 496.152Q570.727 496.15 571.034 496.133Q571.34 496.116 571.645 496.084Q571.95 496.052 572.253 496.005Z"/>
	<path d="M401.312 625.715Q402.396 625.572 403.487 625.482Q404.577 625.393 405.67 625.357Q406.763 625.322 407.857 625.34Q408.951 625.358 410.042 625.43Q411.134 625.502 412.22 625.628Q413.307 625.754 414.386 625.934Q415.465 626.113 416.534 626.345Q417.603 626.577 418.659 626.862Q419.715 627.147 420.756 627.483Q421.797 627.82 422.82 628.207Q423.843 628.594 424.846 629.032Q425.848 629.469 426.828 629.955Q427.808 630.441 428.763 630.975Q429.717 631.509 430.645 632.089Q431.572 632.669 432.469 633.295Q433.367 633.92 434.233 634.589Q435.098 635.258 435.93 635.968Q436.761 636.679 437.557 637.43Q438.352 638.18 439.11 638.969Q439.867 639.759 440.585 640.584Q441.303 641.409 441.979 642.269Q442.655 643.129 443.288 644.021Q443.921 644.913 444.509 645.836Q445.098 646.758 445.64 647.708Q446.182 648.658 446.676 649.634Q447.171 650.609 447.617 651.608Q448.062 652.607 448.459 653.627Q448.855 654.646 449.2 655.684Q449.545 656.722 449.839 657.776Q450.133 658.83 450.374 659.897Q450.616 660.964 450.804 662.041Q450.993 663.119 451.128 664.204Q451.263 665.289 451.345 666.38Q451.426 667.471 451.454 668.565Q451.482 669.658 451.455 670.752Q451.429 671.845 451.349 672.936Q451.269 674.027 451.135 675.113Q451.001 676.198 450.814 677.276Q450.627 678.354 450.387 679.421Q450.146 680.488 449.854 681.542Q449.562 682.596 449.218 683.635Q448.874 684.673 448.479 685.693Q448.084 686.713 447.639 687.713Q447.195 688.712 446.702 689.688Q446.208 690.665 445.667 691.615Q445.127 692.566 444.539 693.489Q443.952 694.412 443.321 695.305Q442.689 696.198 442.014 697.059Q441.339 697.919 440.622 698.746Q439.905 699.572 439.149 700.362Q438.392 701.152 437.597 701.904Q436.803 702.656 435.972 703.367Q435.142 704.079 434.277 704.749Q433.412 705.419 432.515 706.045Q431.619 706.672 430.692 707.253Q429.766 707.834 428.812 708.37Q427.857 708.905 426.878 709.392Q425.899 709.879 424.897 710.318Q423.895 710.756 422.872 711.145Q421.85 711.534 420.809 711.871Q419.769 712.209 418.713 712.495Q417.657 712.781 416.589 713.015Q415.52 713.248 414.441 713.429Q413.362 713.61 412.276 713.737Q411.2 713.863 410.118 713.936Q409.037 714.01 407.954 714.03Q406.87 714.051 405.787 714.018Q404.704 713.986 403.623 713.901Q402.543 713.815 401.468 713.677Q400.393 713.539 399.326 713.349Q398.259 713.159 397.203 712.916Q396.147 712.674 395.103 712.381Q394.06 712.087 393.033 711.743Q392.005 711.399 390.995 711.005Q389.986 710.611 388.996 710.169Q388.007 709.726 387.041 709.235Q386.075 708.745 385.133 708.208Q384.192 707.671 383.278 707.088Q382.364 706.506 381.48 705.879Q380.596 705.253 379.743 704.584Q378.89 703.915 378.071 703.206Q377.252 702.496 376.469 701.747Q375.685 700.998 374.939 700.212Q374.193 699.426 373.487 698.604Q372.78 697.782 372.115 696.927Q371.449 696.072 370.826 695.185Q370.203 694.298 369.624 693.382Q369.045 692.466 368.511 691.523Q367.978 690.58 367.491 689.612Q367.004 688.643 366.565 687.653Q366.126 686.662 365.736 685.651Q365.346 684.64 365.005 683.611Q364.665 682.582 364.376 681.537Q364.086 680.493 363.848 679.436Q363.61 678.379 363.423 677.311Q363.237 676.243 363.103 675.168Q362.969 674.093 362.888 673.012Q362.806 671.931 362.778 670.848Q362.75 669.765 362.774 668.681Q362.799 667.598 362.876 666.517Q362.954 665.436 363.084 664.36Q363.214 663.284 363.397 662.216Q363.579 661.147 363.814 660.089Q364.048 659.031 364.334 657.986Q364.62 656.941 364.956 655.911Q365.293 654.88 365.68 653.868Q366.066 652.856 366.502 651.863Q366.937 650.871 367.42 649.901Q367.904 648.931 368.434 647.986Q368.964 647.041 369.54 646.122Q370.116 645.204 370.736 644.315Q371.356 643.427 372.018 642.569Q372.681 641.711 373.385 640.887Q374.088 640.063 374.831 639.274Q375.574 638.485 376.355 637.734Q377.136 636.982 377.952 636.27Q378.769 635.557 379.619 634.885Q380.47 634.213 381.352 633.584Q382.234 632.954 383.146 632.369Q384.058 631.783 384.997 631.242Q385.936 630.702 386.901 630.208Q387.865 629.714 388.853 629.268Q389.841 628.822 390.849 628.424Q391.857 628.027 392.884 627.679Q393.91 627.331 394.952 627.034Q395.994 626.737 397.05 626.491Q398.105 626.245 399.171 626.051Q400.238 625.857 401.312 625.715ZM410.735 695.261Q411.357 695.172 411.975 695.052Q412.592 694.933 413.203 694.784Q413.814 694.634 414.417 694.455Q415.02 694.276 415.613 694.068Q416.207 693.86 416.789 693.623Q417.372 693.386 417.942 693.121Q418.512 692.856 419.069 692.563Q419.626 692.271 420.167 691.951Q420.709 691.632 421.235 691.287Q421.76 690.941 422.268 690.57Q422.776 690.2 423.265 689.805Q423.755 689.41 424.224 688.991Q424.693 688.573 425.142 688.132Q425.59 687.691 426.017 687.229Q426.443 686.766 426.846 686.284Q427.25 685.801 427.629 685.3Q428.008 684.798 428.363 684.279Q428.717 683.759 429.046 683.223Q429.374 682.687 429.676 682.135Q429.978 681.583 430.253 681.018Q430.528 680.452 430.775 679.874Q431.021 679.295 431.24 678.706Q431.458 678.116 431.647 677.516Q431.837 676.916 431.996 676.308Q432.156 675.7 432.286 675.085Q432.416 674.469 432.516 673.848Q432.615 673.227 432.684 672.602Q432.754 671.977 432.792 671.35Q432.831 670.722 432.839 670.093Q432.847 669.464 432.824 668.836Q432.802 668.207 432.748 667.581Q432.695 666.954 432.611 666.331Q432.527 665.708 432.413 665.089Q432.299 664.471 432.155 663.859Q432.01 663.247 431.836 662.642Q431.662 662.038 431.459 661.443Q431.256 660.848 431.024 660.263Q430.792 659.679 430.532 659.106Q430.271 658.534 429.983 657.975Q429.696 657.416 429.381 656.871Q429.066 656.327 428.725 655.799Q428.384 655.27 428.017 654.759Q427.651 654.248 427.26 653.755Q426.869 653.263 426.455 652.79Q426.04 652.317 425.603 651.865Q425.166 651.413 424.707 650.983Q424.249 650.552 423.77 650.145Q423.29 649.738 422.792 649.354Q422.294 648.971 421.777 648.612Q421.261 648.253 420.727 647.92Q420.194 647.587 419.645 647.28Q419.096 646.974 418.532 646.694Q417.969 646.415 417.393 646.163Q416.816 645.911 416.229 645.688Q415.641 645.465 415.042 645.271Q414.444 645.076 413.838 644.912Q413.231 644.747 412.616 644.612Q412.002 644.477 411.382 644.372Q410.762 644.267 410.138 644.192Q409.513 644.118 408.886 644.074Q408.259 644.03 407.63 644.017Q407.001 644.003 406.373 644.021Q405.744 644.038 405.117 644.086Q404.49 644.134 403.866 644.213Q403.235 644.292 402.609 644.403Q401.984 644.514 401.364 644.655Q400.744 644.796 400.132 644.968Q399.52 645.139 398.917 645.341Q398.315 645.542 397.722 645.774Q397.13 646.005 396.55 646.265Q395.97 646.525 395.404 646.813Q394.837 647.101 394.286 647.417Q393.734 647.733 393.199 648.076Q392.664 648.419 392.146 648.788Q391.628 649.156 391.129 649.55Q390.63 649.944 390.152 650.362Q389.673 650.78 389.215 651.221Q388.757 651.662 388.322 652.125Q387.887 652.588 387.475 653.072Q387.063 653.556 386.675 654.06Q386.287 654.564 385.925 655.086Q385.563 655.608 385.227 656.148Q384.891 656.687 384.582 657.243Q384.273 657.798 383.991 658.368Q383.71 658.938 383.457 659.521Q383.204 660.104 382.981 660.699Q382.757 661.294 382.563 661.899Q382.369 662.505 382.205 663.119Q382.04 663.733 381.907 664.354Q381.773 664.976 381.671 665.603Q381.568 666.23 381.496 666.862Q381.425 667.493 381.384 668.128Q381.344 668.762 381.335 669.397Q381.326 670.033 381.348 670.668Q381.37 671.303 381.424 671.937Q381.477 672.57 381.562 673.2Q381.647 673.83 381.763 674.455Q381.878 675.08 382.025 675.699Q382.171 676.317 382.348 676.928Q382.525 677.538 382.731 678.139Q382.938 678.74 383.174 679.331Q383.41 679.921 383.675 680.498Q383.94 681.076 384.233 681.64Q384.526 682.204 384.846 682.753Q385.167 683.302 385.514 683.834Q385.861 684.367 386.234 684.882Q386.607 685.396 387.005 685.892Q387.403 686.387 387.825 686.863Q388.247 687.338 388.692 687.792Q389.137 688.246 389.604 688.678Q390.071 689.109 390.558 689.517Q391.045 689.925 391.552 690.308Q392.059 690.692 392.585 691.05Q393.11 691.407 393.652 691.739Q394.195 692.071 394.753 692.375Q395.311 692.679 395.883 692.956Q396.455 693.232 397.04 693.48Q397.626 693.728 398.223 693.947Q398.819 694.166 399.426 694.355Q400.033 694.544 400.648 694.703Q401.264 694.862 401.886 694.99Q402.509 695.119 403.137 695.216Q403.765 695.313 404.397 695.38Q405.029 695.446 405.664 695.481Q406.299 695.516 406.934 695.52Q407.57 695.524 408.205 695.496Q408.84 695.469 409.473 695.41Q410.106 695.351 410.735 695.261Z"/>
	<path d="M451.754 449.662C455.659 449.391 459.413 449.909 463.168 450.993Q464.011 451.234 464.841 451.516Q465.671 451.798 466.486 452.12Q467.301 452.443 468.099 452.805Q468.897 453.168 469.676 453.57Q470.455 453.971 471.214 454.411Q471.972 454.85 472.708 455.327Q473.443 455.804 474.155 456.316Q474.866 456.828 475.551 457.375Q476.236 457.922 476.893 458.502Q477.55 459.082 478.178 459.694Q478.805 460.306 479.402 460.948Q479.999 461.59 480.563 462.261Q481.127 462.932 481.657 463.63Q482.188 464.328 482.683 465.051Q483.178 465.774 483.637 466.521Q484.096 467.268 484.517 468.037Q484.916 468.781 485.278 469.543Q485.64 470.305 485.965 471.084Q486.289 471.863 486.575 472.657Q486.861 473.451 487.107 474.258Q487.354 475.065 487.56 475.884Q487.767 476.702 487.933 477.529Q488.1 478.357 488.225 479.191Q488.351 480.026 488.435 480.865Q488.52 481.705 488.563 482.548Q488.606 483.391 488.608 484.234Q488.61 485.078 488.57 485.921Q488.531 486.764 488.45 487.604Q488.369 488.444 488.247 489.279Q488.125 490.115 487.963 490.943Q487.8 491.771 487.597 492.59Q487.394 493.409 487.151 494.217C483.708 505.461 475.523 512.684 465.423 517.984C466.244 527.476 465.574 537.213 465.597 546.751C465.621 556.638 466.266 566.675 465.731 576.536C465.592 579.086 465.481 581.972 464.351 584.299C462.606 587.893 459.289 589.569 455.666 590.736C451.333 590.965 447.317 590.727 444.011 587.561C442.572 586.184 441.109 584.304 440.615 582.342C438.857 575.352 440.007 566.545 440.011 559.32L440.06 518.025C437.239 516.528 434.38 515.056 431.785 513.184Q431.097 512.695 430.434 512.171Q429.77 511.648 429.134 511.093Q428.498 510.537 427.89 509.951Q427.282 509.365 426.704 508.749Q426.126 508.133 425.58 507.489Q425.033 506.845 424.519 506.174Q424.006 505.504 423.526 504.809Q423.046 504.114 422.601 503.396Q422.157 502.678 421.748 501.938Q421.34 501.199 420.969 500.44Q420.598 499.681 420.265 498.905Q419.932 498.129 419.639 497.337Q419.345 496.545 419.091 495.74Q418.837 494.934 418.623 494.117Q418.41 493.3 418.237 492.473Q418.064 491.646 417.933 490.812Q417.797 489.93 417.704 489.043Q417.611 488.156 417.562 487.265Q417.513 486.374 417.508 485.482Q417.503 484.589 417.542 483.698Q417.581 482.807 417.664 481.918Q417.747 481.03 417.874 480.147Q418.001 479.264 418.171 478.388Q418.341 477.512 418.554 476.646Q418.767 475.779 419.022 474.924Q419.278 474.07 419.575 473.228Q419.873 472.387 420.211 471.562Q420.55 470.736 420.928 469.928Q421.307 469.121 421.725 468.332Q422.144 467.544 422.6 466.778Q423.057 466.011 423.55 465.268Q424.044 464.525 424.574 463.807C431.36 454.762 440.902 451.156 451.754 449.662ZM456.251 497.797Q456.565 497.72 456.875 497.627Q457.185 497.535 457.49 497.427Q457.795 497.32 458.095 497.197Q458.394 497.075 458.687 496.938Q458.981 496.801 459.267 496.65Q459.553 496.498 459.831 496.333Q460.109 496.168 460.379 495.99Q460.649 495.811 460.909 495.62Q461.17 495.428 461.421 495.224Q461.672 495.02 461.913 494.804Q462.154 494.587 462.383 494.36Q462.613 494.132 462.831 493.893Q463.05 493.654 463.256 493.405Q463.462 493.156 463.656 492.897Q463.85 492.638 464.031 492.37Q464.212 492.102 464.38 491.825Q464.547 491.548 464.701 491.264Q464.855 490.979 464.994 490.687Q465.134 490.395 465.259 490.097Q465.384 489.798 465.494 489.494Q465.605 489.19 465.7 488.881Q465.795 488.572 465.875 488.258Q465.955 487.945 466.019 487.628Q466.084 487.311 466.133 486.991Q466.182 486.671 466.215 486.349Q466.248 486.027 466.265 485.704Q466.282 485.381 466.284 485.058Q466.285 484.734 466.27 484.411Q466.256 484.088 466.226 483.766Q466.195 483.444 466.149 483.124Q466.103 482.803 466.041 482.486Q465.979 482.168 465.902 481.854Q465.825 481.54 465.732 481.23Q465.64 480.92 465.532 480.615Q465.424 480.31 465.301 480.01Q465.179 479.711 465.042 479.418Q464.905 479.125 464.753 478.839Q464.602 478.553 464.437 478.275Q464.272 477.997 464.093 477.727Q463.914 477.457 463.723 477.196Q463.531 476.936 463.327 476.685Q463.122 476.434 462.906 476.193Q462.69 475.953 462.462 475.723Q462.234 475.493 461.995 475.275Q461.756 475.057 461.507 474.851Q461.258 474.644 460.999 474.451Q460.74 474.257 460.471 474.076Q460.203 473.895 459.926 473.728Q459.649 473.56 459.365 473.407Q459.08 473.253 458.788 473.114Q458.496 472.974 458.198 472.849Q457.899 472.724 457.595 472.614Q457.291 472.504 456.981 472.409Q456.672 472.314 456.359 472.234Q456.045 472.154 455.728 472.09Q455.411 472.025 455.091 471.977Q454.771 471.928 454.449 471.895Q454.128 471.862 453.804 471.845Q453.481 471.828 453.158 471.827Q452.834 471.826 452.511 471.84Q452.188 471.855 451.866 471.886Q451.544 471.916 451.223 471.962Q450.903 472.009 450.586 472.071Q450.268 472.133 449.954 472.21Q449.64 472.287 449.33 472.38Q449.021 472.473 448.716 472.581Q448.411 472.689 448.112 472.811Q447.813 472.934 447.52 473.071Q447.227 473.208 446.941 473.359Q446.656 473.511 446.378 473.676Q446.1 473.841 445.83 474.02Q445.561 474.198 445.3 474.39Q445.04 474.582 444.789 474.786Q444.539 474.99 444.298 475.206Q444.058 475.422 443.828 475.65Q443.599 475.878 443.381 476.117Q443.163 476.355 442.957 476.605Q442.751 476.854 442.557 477.113Q442.364 477.372 442.183 477.64Q442.002 477.908 441.835 478.185Q441.668 478.461 441.514 478.746Q441.361 479.03 441.221 479.322Q441.082 479.614 440.957 479.912Q440.832 480.21 440.722 480.514Q440.612 480.818 440.517 481.127Q440.422 481.436 440.342 481.75Q440.262 482.063 440.198 482.38Q440.133 482.697 440.085 483.016Q440.036 483.336 440.003 483.658Q439.97 483.979 439.953 484.302Q439.936 484.625 439.934 484.948Q439.933 485.272 439.948 485.595Q439.962 485.918 439.993 486.239Q440.023 486.561 440.069 486.881Q440.115 487.201 440.177 487.519Q440.239 487.836 440.316 488.15Q440.393 488.464 440.486 488.774Q440.578 489.084 440.686 489.388Q440.794 489.693 440.916 489.993Q441.039 490.292 441.176 490.585Q441.313 490.878 441.464 491.163Q441.615 491.449 441.78 491.727Q441.945 492.005 442.124 492.275Q442.302 492.544 442.494 492.805Q442.685 493.065 442.889 493.316Q443.093 493.567 443.309 493.808Q443.525 494.048 443.753 494.278Q443.981 494.507 444.219 494.725Q444.458 494.944 444.707 495.15Q444.956 495.356 445.215 495.55Q445.474 495.744 445.742 495.924Q446.01 496.105 446.286 496.273Q446.563 496.44 446.847 496.594Q447.132 496.747 447.423 496.887Q447.715 497.027 448.013 497.152Q448.311 497.277 448.615 497.387Q448.919 497.497 449.228 497.592Q449.537 497.688 449.851 497.768Q450.164 497.848 450.481 497.912Q450.797 497.977 451.117 498.026Q451.437 498.074 451.758 498.108Q452.08 498.141 452.403 498.158Q452.726 498.175 453.049 498.177Q453.372 498.178 453.695 498.164Q454.018 498.15 454.34 498.119Q454.662 498.089 454.982 498.043Q455.302 497.997 455.62 497.936Q455.937 497.874 456.251 497.797Z"/>
	<path fill="#79AAB8" d="M566.329 356.782Q567.176 356.684 568.026 356.628Q568.877 356.572 569.729 356.558Q570.581 356.544 571.433 356.571Q572.285 356.599 573.134 356.668Q573.984 356.738 574.829 356.849Q575.674 356.96 576.513 357.112Q577.351 357.265 578.181 357.458Q579.012 357.652 579.831 357.885Q580.651 358.119 581.458 358.393Q582.265 358.667 583.058 358.98Q583.85 359.293 584.627 359.645Q585.403 359.997 586.161 360.386Q586.92 360.775 587.658 361.202Q588.396 361.628 589.112 362.09Q589.829 362.551 590.522 363.048Q591.214 363.544 591.882 364.074Q592.55 364.604 593.19 365.166Q593.831 365.728 594.444 366.321Q595.056 366.914 595.639 367.536Q596.221 368.158 596.773 368.808Q597.324 369.458 597.843 370.134Q598.362 370.81 598.847 371.511Q599.332 372.212 599.782 372.936Q600.232 373.66 600.646 374.405Q601.059 375.15 601.436 375.915Q601.813 376.679 602.152 377.461Q602.491 378.243 602.791 379.041Q603.091 379.839 603.351 380.651Q603.612 381.462 603.832 382.285Q604.052 383.109 604.232 383.942Q604.412 384.775 604.55 385.616Q604.689 386.457 604.786 387.304Q604.883 388.151 604.939 389.001Q604.994 389.852 605.008 390.704Q605.021 391.556 604.993 392.408Q604.965 393.26 604.895 394.11Q604.825 394.959 604.713 395.804Q604.601 396.649 604.448 397.488Q604.295 398.326 604.101 399.156Q603.907 399.986 603.673 400.805Q603.438 401.625 603.164 402.432Q602.89 403.239 602.576 404.031Q602.262 404.824 601.91 405.6Q601.558 406.376 601.168 407.134Q600.778 407.892 600.351 408.63Q599.924 409.368 599.462 410.084Q599 410.8 598.503 411.492Q598.006 412.185 597.475 412.852Q596.945 413.519 596.383 414.16Q595.82 414.8 595.227 415.412Q594.634 416.024 594.011 416.606Q593.388 417.188 592.738 417.739Q592.088 418.29 591.411 418.808Q590.734 419.327 590.033 419.811Q589.332 420.296 588.608 420.745Q587.883 421.195 587.138 421.608Q586.393 422.021 585.628 422.398Q584.863 422.774 584.081 423.112Q583.298 423.45 582.5 423.75Q581.702 424.049 580.891 424.309Q580.079 424.569 579.255 424.789Q578.432 425.009 577.599 425.188Q576.765 425.367 575.924 425.505Q575.083 425.643 574.236 425.739Q573.39 425.835 572.54 425.89Q571.69 425.945 570.839 425.958Q569.987 425.971 569.136 425.942Q568.285 425.914 567.437 425.843Q566.588 425.773 565.744 425.661Q564.9 425.549 564.062 425.396Q563.224 425.242 562.395 425.048Q561.566 424.854 560.747 424.619Q559.929 424.385 559.123 424.11Q558.317 423.836 557.525 423.522Q556.733 423.209 555.958 422.857Q555.183 422.505 554.425 422.115Q553.668 421.725 552.931 421.299Q552.194 420.872 551.479 420.41Q550.763 419.948 550.072 419.452Q549.38 418.955 548.713 418.425Q548.047 417.896 547.407 417.334Q546.767 416.772 546.155 416.179Q545.544 415.586 544.962 414.965Q544.38 414.343 543.83 413.693Q543.279 413.043 542.761 412.367Q542.244 411.691 541.759 410.991Q541.275 410.29 540.826 409.567Q540.377 408.844 539.963 408.099Q539.55 407.354 539.174 406.591Q538.798 405.827 538.459 405.045Q538.121 404.264 537.822 403.467Q537.522 402.669 537.262 401.859Q537.002 401.048 536.782 400.225Q536.562 399.402 536.382 398.57Q536.203 397.737 536.064 396.897Q535.926 396.057 535.829 395.211Q535.732 394.365 535.677 393.515Q535.621 392.666 535.608 391.814Q535.594 390.963 535.622 390.112Q535.65 389.26 535.72 388.412Q535.79 387.563 535.901 386.719Q536.013 385.875 536.165 385.037Q536.318 384.199 536.511 383.37Q536.705 382.541 536.939 381.722Q537.173 380.903 537.447 380.097Q537.721 379.29 538.034 378.499Q538.347 377.707 538.698 376.931Q539.05 376.155 539.439 375.398Q539.828 374.641 540.254 373.903Q540.68 373.166 541.141 372.45Q541.603 371.734 542.099 371.042Q542.595 370.35 543.124 369.683Q543.654 369.016 544.215 368.376Q544.776 367.736 545.369 367.124Q545.961 366.512 546.582 365.93Q547.204 365.347 547.853 364.796Q548.502 364.245 549.178 363.727Q549.853 363.208 550.554 362.724Q551.254 362.239 551.977 361.789Q552.7 361.339 553.444 360.926Q554.188 360.512 554.952 360.135Q555.716 359.758 556.497 359.42Q557.278 359.081 558.075 358.781Q558.872 358.48 559.683 358.22Q560.493 357.959 561.316 357.738Q562.138 357.518 562.971 357.338Q563.803 357.158 564.643 357.019Q565.483 356.88 566.329 356.782ZM572.734 404.372Q573.058 404.313 573.379 404.237Q573.7 404.162 574.017 404.071Q574.333 403.98 574.645 403.874Q574.957 403.767 575.263 403.645Q575.569 403.524 575.869 403.387Q576.169 403.25 576.462 403.099Q576.755 402.948 577.04 402.782Q577.325 402.616 577.601 402.437Q577.877 402.258 578.145 402.065Q578.412 401.872 578.669 401.666Q578.927 401.461 579.174 401.242Q579.421 401.024 579.657 400.794Q579.893 400.564 580.117 400.323Q580.341 400.081 580.553 399.829Q580.765 399.577 580.965 399.314Q581.164 399.052 581.351 398.78Q581.537 398.508 581.709 398.228Q581.882 397.947 582.041 397.658Q582.199 397.369 582.343 397.073Q582.488 396.777 582.617 396.473Q582.746 396.17 582.861 395.861Q582.975 395.552 583.074 395.238Q583.173 394.924 583.256 394.605Q583.339 394.286 583.407 393.963Q583.474 393.641 583.526 393.315Q583.577 392.99 583.613 392.662Q583.648 392.334 583.667 392.005Q583.687 391.677 583.69 391.347Q583.693 391.017 583.679 390.688Q583.666 390.359 583.636 390.031Q583.607 389.702 583.561 389.376Q583.516 389.05 583.454 388.726Q583.392 388.402 583.315 388.082Q583.237 387.762 583.144 387.446Q583.051 387.13 582.942 386.818Q582.833 386.507 582.709 386.202Q582.586 385.897 582.447 385.598Q582.308 385.299 582.155 385.007Q582.001 384.715 581.834 384.432Q581.666 384.148 581.485 383.873Q581.304 383.598 581.109 383.332Q580.914 383.066 580.707 382.81Q580.499 382.554 580.279 382.308Q580.059 382.063 579.828 381.829Q579.596 381.594 579.353 381.372Q579.11 381.149 578.856 380.939Q578.603 380.728 578.339 380.531Q578.075 380.333 577.802 380.149Q577.529 379.964 577.247 379.794Q576.965 379.623 576.675 379.467Q576.385 379.31 576.088 379.168Q575.79 379.026 575.486 378.899Q575.182 378.771 574.872 378.659Q574.562 378.547 574.247 378.45Q573.932 378.354 573.613 378.273Q573.294 378.192 572.971 378.126Q572.648 378.061 572.322 378.012Q571.996 377.963 571.668 377.93Q571.34 377.897 571.011 377.88Q570.682 377.863 570.352 377.862Q570.023 377.861 569.694 377.877Q569.364 377.893 569.036 377.924Q568.708 377.956 568.382 378.004Q568.056 378.052 567.733 378.116Q567.413 378.179 567.096 378.258Q566.779 378.337 566.466 378.432Q566.153 378.526 565.846 378.635Q565.538 378.745 565.236 378.869Q564.934 378.994 564.638 379.133Q564.343 379.272 564.054 379.425Q563.766 379.578 563.485 379.745Q563.205 379.913 562.933 380.093Q562.661 380.274 562.398 380.468Q562.135 380.661 561.882 380.868Q561.629 381.074 561.386 381.293Q561.143 381.511 560.911 381.741Q560.679 381.971 560.459 382.212Q560.239 382.454 560.031 382.705Q559.822 382.957 559.627 383.218Q559.431 383.48 559.248 383.75Q559.066 384.021 558.896 384.3Q558.727 384.58 558.572 384.867Q558.416 385.154 558.275 385.449Q558.134 385.743 558.007 386.044Q557.881 386.345 557.769 386.652Q557.657 386.959 557.56 387.271Q557.464 387.583 557.382 387.899Q557.301 388.216 557.235 388.536Q557.17 388.856 557.12 389.178Q557.07 389.501 557.035 389.826Q557.001 390.151 556.983 390.477Q556.965 390.803 556.962 391.13Q556.96 391.456 556.973 391.782Q556.987 392.109 557.017 392.434Q557.046 392.759 557.091 393.083Q557.137 393.406 557.198 393.727Q557.259 394.048 557.336 394.365Q557.413 394.683 557.505 394.996Q557.597 395.309 557.704 395.618Q557.811 395.926 557.934 396.229Q558.056 396.532 558.193 396.829Q558.33 397.125 558.481 397.415Q558.632 397.704 558.797 397.986Q558.963 398.268 559.141 398.541Q559.32 398.814 559.512 399.079Q559.704 399.343 559.908 399.597Q560.113 399.852 560.33 400.096Q560.547 400.341 560.775 400.574Q561.003 400.807 561.243 401.029Q561.482 401.251 561.733 401.461Q561.983 401.671 562.243 401.869Q562.503 402.067 562.772 402.251Q563.042 402.436 563.32 402.607Q563.598 402.778 563.884 402.936Q564.17 403.093 564.464 403.236Q564.757 403.38 565.057 403.508Q565.358 403.637 565.664 403.751Q565.97 403.865 566.281 403.964Q566.592 404.063 566.908 404.146Q567.224 404.23 567.543 404.298Q567.863 404.366 568.185 404.418Q568.507 404.47 568.832 404.507Q569.157 404.543 569.482 404.564Q569.808 404.585 570.135 404.589Q570.462 404.594 570.788 404.583Q571.114 404.571 571.44 404.544Q571.765 404.517 572.089 404.474Q572.413 404.431 572.734 404.372Z"/>
	<path d="M327.195 627.992Q336.829 627.879 346.463 628.031C345.522 636.891 346.06 646.364 346.235 655.27Q346.538 671.945 346.58 688.623C346.616 695.674 347.02 703.058 345.866 710.034C342.958 711.271 339.856 711.666 336.726 711.887C334.219 712.063 331.522 711.437 329.667 709.645C325.061 705.197 326.918 685.931 326.954 679.399C315.286 679.775 303.577 679.371 291.899 679.589C292.031 685.844 293.525 702.421 291.116 707.757C290.455 709.222 289.383 710.45 287.804 710.923C284.705 711.851 277.454 711.894 274.78 709.978C273.26 708.89 273.182 705.869 273.017 704.168C272.053 694.182 272.938 679.336 272.943 668.766C272.948 658.296 272.007 641.699 273.229 632.012C273.448 630.276 273.893 629.348 274.993 628.004C280.618 628.024 286.247 627.989 291.868 628.26C292.158 639.795 292.022 651.358 292.043 662.897Q309.524 663.043 327.005 662.977C327.306 651.335 327.143 639.64 327.195 627.992Z"/>
	<path d="M663.351 627.978Q673.075 627.674 682.801 627.918C686.53 637.509 714.67 705.554 714.313 708.973C713.769 709.72 713.294 710.155 712.452 710.523C709.56 711.788 701.525 712.452 698.619 711.016C693.305 708.391 691.738 700.444 690.068 695.213Q686.848 695.055 683.625 694.983L655.47 694.929C654.412 699.027 652.822 705.756 649.731 708.689C646.851 711.42 642.778 711.716 639.011 711.489C636.892 711.362 633.294 711.153 631.918 709.566C631.577 707.218 632.085 705.268 632.81 703.027C636.017 693.112 641.233 682.087 645.311 672.312L663.351 627.978ZM661.707 679.534Q668.403 679.543 675.097 679.709L684 679.704C681.489 672.734 676.781 656.085 672.567 650.782C668.404 660.101 665.166 669.937 661.707 679.534Z"/>
	<path d="M520.896 627.987C527.215 628.048 533.612 628.331 539.914 627.785L540.077 644.875C539.574 662.378 544.374 684.111 533.409 699.37C528.299 706.482 520.297 710.463 511.774 711.779C500.522 713.518 486.64 712.448 477.294 705.294C465.31 696.12 465.877 680.298 465.88 666.748Q465.819 654.628 465.905 642.508C465.915 637.89 466.213 633.051 465.63 628.466C465.61 628.305 465.585 628.144 465.563 627.983Q475.482 627.935 485.4 628.049C485.395 628.116 485.389 628.183 485.385 628.25C484.84 637.106 485.063 646.086 485.046 654.958C485.029 663.279 484.403 672.901 485.938 681.081C486.59 684.557 487.524 687.958 489.965 690.634C493.124 694.099 497.86 695.791 502.486 695.771C507.407 695.75 512.254 694.485 515.785 690.879C517.953 688.664 519.067 686.311 519.754 683.305C521.584 675.285 520.979 666.229 520.969 658.037L520.896 627.987Z"/>
	<path d="M583.819 626.606C588.897 626.32 593.895 626.225 598.954 626.852C606.468 627.783 614.791 629.683 619.659 635.908C618.262 640.649 616.112 644.692 613.151 648.619C604.295 646.88 596.902 641.613 587.43 642.512C583.382 642.896 580.343 644.222 577.759 647.444C576.831 648.602 576.004 650.15 576.36 651.687C577.928 658.46 598.303 662.086 604.208 664.201C608.426 665.712 612.699 667.739 616.168 670.614C620.493 674.199 622.993 679.054 623.384 684.659C623.863 691.517 622.185 697.687 617.498 702.825C610.602 710.386 600.581 711.99 590.898 712.533Q589.019 712.565 587.141 712.532C575.597 712.295 563.944 709.035 555.814 700.524C557.791 695.61 560.223 691.318 563.391 687.078C573.581 691.825 581.984 697.465 593.775 696.578C596.963 696.338 599.812 695.432 601.831 692.814C603.053 691.23 603.934 688.604 603.435 686.601C601.343 678.196 576.521 676.402 567.771 670.708C562.907 667.543 558.97 662.973 557.841 657.154C556.538 650.444 557.614 643.623 561.623 637.995C567.03 630.405 575.191 628.177 583.819 626.606Z"/>
	<path d="M737.532 627.727C740.488 627.478 744.515 627.448 747.258 628.619C749.145 635.676 748.047 650.088 748.051 658.067C748.059 675.298 748.778 692.713 747.384 709.89C744.934 710.572 742.416 711.004 739.922 711.495C736.716 711.555 732.721 712.022 730.115 709.773C728.777 708.619 728.856 705.244 728.758 703.53C728.251 694.649 728.887 685.66 728.962 676.767Q729.111 652.39 728.754 628.015C731.695 628.02 734.597 627.916 737.532 627.727Z"/>
</svg>
