<?xml version="1.0" encoding="UTF-8" standalone="no"?>
<svg
   width="475.79773"
   height="88.704277"
   version="1.1"
   id="svg10"
   sodipodi:docname="label beige.svg"
   inkscape:version="1.4 (86a8ad7, 2024-10-11)"
   xmlns:inkscape="http://www.inkscape.org/namespaces/inkscape"
   xmlns:sodipodi="http://sodipodi.sourceforge.net/DTD/sodipodi-0.dtd"
   xmlns="http://www.w3.org/2000/svg"
   xmlns:svg="http://www.w3.org/2000/svg">
  <defs
     id="defs10" />
  <sodipodi:namedview
     id="namedview10"
     pagecolor="#ffffff"
     bordercolor="#000000"
     borderopacity="0.25"
     inkscape:showpageshadow="2"
     inkscape:pageopacity="0.0"
     inkscape:pagecheckerboard="0"
     inkscape:deskcolor="#d1d1d1"
     inkscape:zoom="0.78808594"
     inkscape:cx="-88.188352"
     inkscape:cy="149.09541"
     inkscape:window-width="1920"
     inkscape:window-height="1009"
     inkscape:window-x="-8"
     inkscape:window-y="-8"
     inkscape:window-maximized="1"
     inkscape:current-layer="svg10" />
  <path
     d="m 128.74471,0.38111321 q 1.084,-0.143 2.175,-0.233 1.09,-0.089 2.183,-0.125 1.093,-0.035 2.187,-0.017 1.094,0.018 2.185,0.09 1.092,0.072 2.178,0.198 1.087,0.126 2.166,0.306 1.079,0.179 2.148,0.41099999 1.069,0.232 2.125,0.517 1.056,0.285 2.097,0.621 1.041,0.337 2.064,0.724 1.023,0.387 2.026,0.825 1.002,0.437 1.982,0.923 0.98,0.486 1.935,1.02 0.954,0.534 1.882,1.114 0.927,0.58 1.824,1.206 0.898,0.625 1.764,1.294 0.865,0.669 1.697,1.3789998 0.831,0.711 1.627,1.462 0.795,0.75 1.553,1.539 0.757,0.79 1.475,1.615 0.718,0.825 1.394,1.685 0.676,0.86 1.309,1.752 0.633,0.892 1.221,1.815 0.589,0.922 1.131,1.872 0.542,0.95 1.036,1.926 0.495,0.975 0.941,1.974 0.445,0.999 0.842,2.019 0.396,1.019 0.741,2.057 0.345,1.038 0.639,2.092 0.294,1.054 0.535,2.121 0.242,1.067 0.43,2.144 0.189,1.078 0.324,2.163 0.135,1.085 0.217,2.176 0.081,1.091 0.109,2.185 0.028,1.093 0.001,2.187 -0.026,1.093 -0.106,2.184 -0.08,1.091 -0.214,2.177 -0.134,1.085 -0.321,2.163 -0.187,1.078 -0.427,2.145 -0.241,1.067 -0.533,2.121 -0.292,1.054 -0.636,2.093 -0.344,1.038 -0.739,2.058 -0.395,1.02 -0.84,2.02 -0.444,0.999 -0.937,1.975 -0.494,0.977 -1.035,1.927 -0.54,0.951 -1.128,1.874 -0.587,0.923 -1.218,1.816 -0.632,0.893 -1.307,1.754 -0.675,0.86 -1.392,1.687 -0.717,0.826 -1.473,1.616 -0.757,0.79 -1.552,1.542 -0.794,0.752 -1.625,1.463 -0.83,0.712 -1.695,1.382 -0.865,0.67 -1.762,1.296 -0.896,0.627 -1.823,1.208 -0.926,0.581 -1.88,1.117 -0.955,0.535 -1.934,1.022 -0.979,0.487 -1.981,0.926 -1.002,0.438 -2.025,0.827 -1.022,0.389 -2.063,0.726 -1.04,0.338 -2.096,0.624 -1.056,0.286 -2.124,0.52 -1.069,0.233 -2.148,0.414 -1.079,0.181 -2.165,0.308 -1.076,0.126 -2.158,0.199 -1.081,0.074 -2.164,0.094 -1.084,0.021 -2.167,-0.012 -1.083,-0.032 -2.164,-0.117 -1.08,-0.086 -2.155,-0.224 -1.075,-0.138 -2.142,-0.328 -1.067,-0.19 -2.123,-0.433 -1.056,-0.242 -2.1,-0.535 -1.043,-0.294 -2.07,-0.638 -1.028,-0.344 -2.038,-0.738 -1.009,-0.394 -1.999,-0.836 -0.989,-0.443 -1.955,-0.934 -0.966,-0.49 -1.908,-1.027 -0.941,-0.537 -1.855,-1.12 -0.914,-0.582 -1.798,-1.209 -0.884,-0.626 -1.737,-1.295 -0.853,-0.669 -1.672,-1.378 -0.819,-0.71 -1.602,-1.459 -0.784,-0.749 -1.53,-1.535 -0.746,-0.786 -1.452,-1.608 -0.707,-0.822 -1.371998,-1.677 -0.666,-0.855 -1.289,-1.742 -0.623,-0.887 -1.202,-1.803 -0.579,-0.916 -1.113,-1.859 -0.533,-0.943 -1.02,-1.911 -0.487,-0.969 -0.926,-1.959 -0.439,-0.991 -0.829,-2.002 -0.39,-1.011 -0.731,-2.04 -0.34,-1.029 -0.629,-2.074 -0.29,-1.044 -0.528,-2.101 -0.238,-1.057 -0.425,-2.125 -0.186,-1.068 -0.32,-2.143 -0.134,-1.075 -0.215,-2.156 -0.082,-1.081 -0.11,-2.164 -0.028,-1.083 -0.004,-2.167 0.025,-1.083 0.102,-2.164 0.078,-1.081 0.208,-2.157 0.13,-1.076 0.313,-2.144 0.182,-1.069 0.417,-2.127 0.234,-1.058 0.52,-2.103 0.286,-1.045 0.622,-2.075 0.337,-1.031 0.724,-2.043 0.386,-1.012 0.822,-2.005 0.435,-0.992 0.918,-1.962 0.484,-0.97 1.014,-1.915 0.53,-0.945 1.106,-1.864 0.576,-0.918 1.196,-1.807 0.62,-0.888 1.282,-1.746 0.662998,-0.858 1.366998,-1.682 0.703,-0.824 1.446,-1.613 0.743,-0.789 1.524,-1.54 0.781,-0.752 1.597,-1.464 0.817,-0.713 1.667,-1.3849998 0.851,-0.672 1.733,-1.301 0.882,-0.63 1.794,-1.215 0.912,-0.586 1.851,-1.127 0.939,-0.54 1.904,-1.034 0.964,-0.494 1.952,-0.94 0.988,-0.446 1.996,-0.844 1.008,-0.397 2.035,-0.745 1.026,-0.348 2.068,-0.645 1.042,-0.297 2.098,-0.543 1.055,-0.24599999 2.121,-0.43999999 1.067,-0.194 2.141,-0.336 z m 9.423,69.54599979 q 0.622,-0.089 1.24,-0.209 0.617,-0.119 1.228,-0.268 0.611,-0.15 1.214,-0.329 0.603,-0.179 1.196,-0.387 0.594,-0.208 1.176,-0.445 0.583,-0.237 1.153,-0.502 0.57,-0.265 1.127,-0.558 0.557,-0.292 1.098,-0.612 0.542,-0.319 1.068,-0.664 0.525,-0.346 1.033,-0.717 0.508,-0.37 0.997,-0.765 0.49,-0.395 0.959,-0.814 0.469,-0.418 0.918,-0.859 0.448,-0.441 0.875,-0.903 0.426,-0.463 0.829,-0.945 0.404,-0.483 0.783,-0.984 0.379,-0.502 0.734,-1.021 0.354,-0.52 0.683,-1.056 0.328,-0.536 0.63,-1.088 0.302,-0.552 0.577,-1.117 0.275,-0.566 0.522,-1.144 0.246,-0.579 0.465,-1.168 0.218,-0.59 0.407,-1.19 0.19,-0.6 0.349,-1.208 0.16,-0.608 0.29,-1.223 0.13,-0.616 0.23,-1.237 0.099,-0.621 0.168,-1.246 0.07,-0.625 0.108,-1.252 0.039,-0.628 0.047,-1.257 0.008,-0.629 -0.015,-1.257 -0.022,-0.629 -0.076,-1.255 -0.053,-0.627 -0.137,-1.25 -0.084,-0.623 -0.198,-1.242 -0.114,-0.618 -0.258,-1.23 -0.145,-0.612 -0.319,-1.217 -0.174,-0.604 -0.377,-1.199 -0.203,-0.595 -0.435,-1.18 -0.232,-0.584 -0.492,-1.157 -0.261,-0.572 -0.549,-1.131 -0.287,-0.559 -0.602,-1.104 -0.315,-0.544 -0.656,-1.072 -0.341,-0.529 -0.708,-1.04 -0.366,-0.511 -0.757,-1.004 -0.391,-0.492 -0.805,-0.965 -0.415,-0.473 -0.852,-0.925 -0.437,-0.452 -0.896,-0.882 -0.458,-0.431 -0.937,-0.838 -0.48,-0.407 -0.978,-0.791 -0.498,-0.383 -1.015,-0.742 -0.516,-0.359 -1.05,-0.692 -0.533,-0.333 -1.082,-0.64 -0.549,-0.306 -1.113,-0.586 -0.563,-0.279 -1.139,-0.531 -0.577,-0.252 -1.164,-0.475 -0.588,-0.223 -1.187,-0.417 -0.598,-0.195 -1.204,-0.359 -0.607,-0.165 -1.222,-0.3 -0.614,-0.135 -1.234,-0.24 -0.62,-0.105 -1.244,-0.18 -0.625,-0.074 -1.252,-0.118 -0.627,-0.044 -1.256,-0.057 -0.629,-0.014 -1.257,0.004 -0.629,0.017 -1.256,0.065 -0.627,0.048 -1.251,0.127 -0.631,0.079 -1.257,0.19 -0.625,0.111 -1.245,0.252 -0.62,0.141 -1.232,0.313 -0.612,0.171 -1.215,0.373 -0.602,0.201 -1.195,0.433 -0.592,0.231 -1.172,0.491 -0.58,0.26 -1.146,0.548 -0.567,0.288 -1.118,0.604 -0.552,0.316 -1.087,0.659 -0.535,0.343 -1.053,0.712 -0.518,0.368 -1.017,0.762 -0.499,0.394 -0.977,0.812 -0.479,0.418 -0.937,0.859 -0.458,0.441 -0.893,0.904 -0.435,0.463 -0.847,0.947 -0.412,0.484 -0.8,0.988 -0.388,0.504 -0.75,1.026 -0.362,0.522 -0.698,1.062 -0.336,0.539 -0.645,1.095 -0.309,0.555 -0.591,1.125 -0.281,0.57 -0.534,1.153 -0.253,0.583 -0.476,1.178 -0.224,0.595 -0.418,1.2 -0.194,0.606 -0.358,1.22 -0.165,0.614 -0.298,1.235 -0.134,0.622 -0.236,1.249 -0.103,0.627 -0.175,1.259 -0.071,0.631 -0.112,1.266 -0.04,0.634 -0.049,1.269 -0.009,0.636 0.013,1.271 0.022,0.635 0.076,1.269 0.053,0.633 0.138,1.263 0.085,0.63 0.201,1.255 0.115,0.625 0.262,1.244 0.146,0.618 0.323,1.229 0.177,0.61 0.383,1.211 0.207,0.601 0.443,1.192 0.236,0.59 0.501,1.167 0.265,0.578 0.558,1.142 0.293,0.564 0.613,1.113 0.321,0.549 0.668,1.081 0.347,0.533 0.72,1.048 0.373,0.514 0.771,1.01 0.398,0.495 0.82,0.971 0.422,0.475 0.867,0.929 0.445,0.454 0.912,0.886 0.467,0.431 0.954,0.839 0.487,0.408 0.994,0.791 0.507,0.384 1.033,0.742 0.525,0.357 1.067,0.689 0.543,0.332 1.101,0.636 0.558,0.304 1.13,0.581 0.572,0.276 1.157,0.524 0.586,0.248 1.183,0.467 0.596,0.219 1.203,0.408 0.607,0.189 1.222,0.348 0.616,0.159 1.238,0.287 0.623,0.129 1.251,0.226 0.628,0.097 1.26,0.164 0.632,0.066 1.267,0.101 0.635,0.035 1.27,0.039 0.636,0.004 1.271,-0.024 0.635,-0.027 1.268,-0.086 0.633,-0.059 1.262,-0.149 z"
     id="path3"
     style="fill:#f8e6ac;fill-opacity:1" />
  <path
     d="m 54.627712,2.6581132 q 9.634,-0.113 19.268,0.039 c -0.941,8.8599998 -0.403,18.3329998 -0.228,27.2389998 q 0.303,16.675 0.345,33.353 c 0.036,7.051 0.44,14.435 -0.714,21.411 -2.908,1.237 -6.01,1.632 -9.14,1.853 -2.507,0.176 -5.204,-0.45 -7.059,-2.242 -4.606,-4.448 -2.749,-23.714 -2.713,-30.246 -11.668,0.376 -23.377,-0.028 -35.055,0.19 0.132,6.255 1.626,22.832 -0.783,28.168 -0.661,1.465 -1.733,2.693 -3.312,3.166 -3.099,0.928 -10.3500002,0.971 -13.0240002,-0.945 -1.51999995,-1.088 -1.59799995,-4.109 -1.76299995,-5.81 -0.964,-9.986 -0.079,-24.832 -0.074,-35.402 0.005,-10.47 -0.936,-27.067 0.286,-36.7539998 0.219,-1.736 0.66399995,-2.664 1.76399995,-4.008 5.625,0.02 11.2540002,-0.015 16.8750002,0.256 0.29,11.5349998 0.154,23.0979998 0.175,34.6369998 q 17.481,0.146 34.962,0.08 c 0.301,-11.642 0.138,-23.337 0.19,-34.9849998 z"
     id="path6"
     style="fill:#f8e6ac;fill-opacity:1" />
  <path
     d="m 390.78371,2.6441132 q 9.724,-0.304 19.45,-0.06 c 3.729,9.5909998 31.869,77.6359998 31.512,81.0549998 -0.544,0.747 -1.019,1.182 -1.861,1.55 -2.892,1.265 -10.927,1.929 -13.833,0.493 -5.314,-2.625 -6.881,-10.572 -8.551,-15.803 q -3.22,-0.158 -6.443,-0.23 l -28.155,-0.054 c -1.058,4.098 -2.648,10.827 -5.739,13.76 -2.88,2.731 -6.953,3.027 -10.72,2.8 -2.119,-0.127 -5.717,-0.336 -7.093,-1.923 -0.341,-2.348 0.167,-4.298 0.892,-6.539 3.207,-9.915 8.423,-20.94 12.501,-30.715 z m -1.644,51.5559998 q 6.696,0.009 13.39,0.175 l 8.903,-0.005 c -2.511,-6.97 -7.219,-23.619 -11.433,-28.922 -4.163,9.319 -7.401,19.155 -10.86,28.752 z"
     id="path7"
     style="fill:#f8e6ac;fill-opacity:1" />
  <path
     d="m 248.32871,2.6531132 c 6.319,0.061 12.716,0.344 19.018,-0.202 l 0.163,17.0899998 c -0.503,17.503 4.297,39.236 -6.668,54.495 -5.11,7.112 -13.112,11.093 -21.635,12.409 -11.252,1.739 -25.134,0.669 -34.48,-6.485 -11.984,-9.174 -11.417,-24.996 -11.414,-38.546 q -0.061,-12.12 0.025,-24.24 c 0.01,-4.618 0.308,-9.4569998 -0.275,-14.0419998 -0.02,-0.161 -0.045,-0.322 -0.067,-0.483 q 9.919,-0.048 19.837,0.066 c -0.005,0.067 -0.011,0.134 -0.015,0.201 -0.545,8.8559998 -0.322,17.8359998 -0.339,26.7079998 -0.017,8.321 -0.643,17.943 0.892,26.123 0.652,3.476 1.586,6.877 4.027,9.553 3.159,3.465 7.895,5.157 12.521,5.137 4.921,-0.021 9.768,-1.286 13.299,-4.892 2.168,-2.215 3.282,-4.568 3.969,-7.574 1.83,-8.02 1.225,-17.076 1.215,-25.268 z"
     id="path8"
     style="fill:#f8e6ac;fill-opacity:1" />
  <path
     d="m 311.25171,1.2721132 c 5.078,-0.28599999 10.076,-0.38099999 15.135,0.246 7.514,0.931 15.837,2.831 20.705,9.0559998 -1.397,4.741 -3.547,8.784 -6.508,12.711 -8.856,-1.739 -16.249,-7.006 -25.721,-6.107 -4.048,0.384 -7.087,1.71 -9.671,4.932 -0.928,1.158 -1.755,2.706 -1.399,4.243 1.568,6.773 21.943,10.399 27.848,12.514 4.218,1.511 8.491,3.538 11.96,6.413 4.325,3.585 6.825,8.44 7.216,14.045 0.479,6.858 -1.199,13.028 -5.886,18.166 -6.896,7.561 -16.917,9.165 -26.6,9.708 q -1.879,0.032 -3.757,-10e-4 c -11.544,-0.237 -23.197,-3.497 -31.327,-12.008 1.977,-4.914 4.409,-9.206 7.577,-13.446 10.19,4.747 18.593,10.387 30.384,9.5 3.188,-0.24 6.037,-1.146 8.056,-3.764 1.222,-1.584 2.103,-4.21 1.604,-6.213 -2.092,-8.405 -26.914,-10.199 -35.664,-15.893 -4.864,-3.165 -8.801,-7.735 -9.93,-13.554 -1.303,-6.71 -0.227,-13.531 3.782,-19.159 5.407,-7.5899998 13.568,-9.8179998 22.196,-11.3889998 z"
     id="path9"
     style="fill:#f8e6ac;fill-opacity:1" />
  <path
     d="m 464.96471,2.3931132 c 2.956,-0.249 6.983,-0.279 9.726,0.892 1.887,7.0569998 0.789,21.4689998 0.793,29.4479998 0.008,17.231 0.727,34.646 -0.667,51.823 -2.45,0.682 -4.968,1.114 -7.462,1.605 -3.206,0.06 -7.201,0.527 -9.807,-1.722 -1.338,-1.154 -1.259,-4.529 -1.357,-6.243 -0.507,-8.881 0.129,-17.87 0.204,-26.763 q 0.149,-24.377 -0.208,-48.7519998 c 2.941,0.005 5.843,-0.099 8.778,-0.288 z"
     id="path10"
     style="fill:#f8e6ac;fill-opacity:1" />
</svg>
