<?xml version="1.0" encoding="UTF-8" standalone="no"?>
<svg
   width="479.09317"
   height="449.70807"
   version="1.1"
   id="svg10"
   sodipodi:docname="pure logo beige.svg"
   inkscape:version="1.4 (86a8ad7, 2024-10-11)"
   viewBox="0 0 368.53321 345.92928"
   xml:space="preserve"
   xmlns:inkscape="http://www.inkscape.org/namespaces/inkscape"
   xmlns:sodipodi="http://sodipodi.sourceforge.net/DTD/sodipodi-0.dtd"
   xmlns="http://www.w3.org/2000/svg"
   xmlns:svg="http://www.w3.org/2000/svg"><defs
     id="defs10" /><sodipodi:namedview
     id="namedview10"
     pagecolor="#ffffff"
     bordercolor="#000000"
     borderopacity="0.25"
     inkscape:showpageshadow="2"
     inkscape:pageopacity="0.0"
     inkscape:pagecheckerboard="0"
     inkscape:deskcolor="#d1d1d1"
     inkscape:zoom="1.1145218"
     inkscape:cx="369.21664"
     inkscape:cy="290.25901"
     inkscape:window-width="1920"
     inkscape:window-height="1009"
     inkscape:window-x="-8"
     inkscape:window-y="-8"
     inkscape:window-maximized="1"
     inkscape:current-layer="svg10" /><path
     d="m 180.98397,0.07217341 c 4.703,-0.262 9.037,0.15 13.445,1.88699999 8.834,3.483 17.035,10.9029996 24.641,16.5269996 q 11.242,8.279 22.651,16.326 l 74.938,53.148 c 13.364,9.45 27.43,18.346997 40.296,28.454997 3.443,2.706 8.169,6.463 9.846,10.592 1.251,3.082 1.55,6.38 1.662,9.67 0.259,7.572 -0.277,15.196 -0.338,22.772 l -0.064,46.577 0.221,127.456 c -0.014,1.727 0.082,3.514 -0.688,5.108 -0.087,0.181 -0.19,0.354 -0.284,0.532 -0.11,0.21 -0.213,0.423 -0.326,0.631 -1.457,2.689 -3.982,4.819 -6.963,5.619 -3.212,0.863 -6.937,0.372 -9.803,-1.311 -2.758,-1.621 -4.653,-4.063 -5.435,-7.173 -1.925,-7.657 -0.705,-28.298 -0.681,-37.145 l -0.076,-101.277 c 0.046,-11.191 2.006,-49.646 -0.507,-57.982 -0.856,-2.837 -2.99,-5.022 -5.253,-6.82 -7.816,-6.208 -16.555,-11.545 -24.725,-17.293 q -25.093,-17.694997 -49.998,-35.651997 l -46.55,-33.225 c -9.068,-6.54 -18.288,-14.525 -28.165,-19.693 l -0.623,-0.321 c -1.352,-0.524 -2.671,-0.827 -4.116,-0.567 -3.156,0.568 -6.105,2.636 -8.728,4.378 -9.262,6.149 -18.081,13.067 -27.105,19.566 l -49.168996,35.043 q -17.802,12.787 -35.766,25.344997 c -9.903,6.869 -20.092,13.546 -29.616,20.928 -3.081,2.389 -5.777,4.49 -8.024,7.714 -1.737,12.75 -0.636,27.921 -0.63,40.983 l 0.004,100.61 c 0.01,16.051 0.862,32.229 0.131,48.255 -0.144,3.163 -0.176,7.772 -1.678,10.593 -1.408,2.642 -4.459,4.371 -7.25,5.138 -3.368,0.925 -7.1279996,0.466 -10.1059996,-1.392 -2.419,-1.509 -4.308,-3.907 -4.937,-6.715 -2.381,-10.626 -0.56699993,-23.322 -0.34599993,-34.225 0.19899993,-9.842 0.085,-19.707 0.089,-29.551 l -0.022,-92.289 c -0.011,-15.678 -0.706,-31.701 0.068,-47.336 0.154,-3.119 0.766,-6.293 2.455,-8.969 2.021,-3.2 5.722,-5.932 8.7169995,-8.193 9.576,-7.229 19.861,-13.591 29.672,-20.503997 l 60.199996,-42.823 c 22.992,-16.265 45.292,-34.011 69.023,-49.1649996 3.147,-2.01 6.214,-3.48899999 9.913,-4.23199999 z"
     id="path1"
     style="fill:#f8e6ac;fill-opacity:1" /><path
     d="m 124.79697,110.61617 c 2.809,-0.245 5.605,0.101 8.374,0.573 q 0.847,0.142 1.685,0.327 0.838,0.184 1.666,0.41 0.829,0.226 1.644,0.493 0.816,0.267 1.618,0.575 0.801,0.307 1.586,0.655 0.785,0.347 1.552,0.733 0.767,0.386 1.513,0.809 0.747,0.424 1.471,0.885 0.725,0.46 1.425,0.956 0.701,0.497 1.375,1.027 0.675,0.531 1.323,1.094 0.647,0.564 1.266,1.159 0.618,0.595 1.206,1.221 0.588,0.625 1.144,1.279 0.557,0.654 1.079,1.335 0.523,0.681 1.011,1.387 c 7.359,10.46 6.848,21.434 4.688,33.472 16.94,11.619 32.628,25.377 48.962,37.854 4.136,3.159 9.863,8.603 14.645,10.489 1.391,0.549 7.808,-2.678 10.061,-3.16 6.338,-1.357 13.023,-1.485 19.305,0.21 q 0.835,0.231 1.657,0.503 0.823,0.272 1.631,0.585 0.807,0.313 1.598,0.666 0.792,0.353 1.564,0.745 0.772,0.392 1.524,0.822 0.752,0.43 1.482,0.897 0.729,0.468 1.434,0.971 0.706,0.503 1.385,1.041 0.679,0.537 1.33,1.108 0.652,0.571 1.274,1.174 0.622,0.603 1.213,1.237 0.591,0.633 1.15,1.295 0.559,0.662 1.083,1.351 0.525,0.689 1.015,1.404 0.49,0.714 0.943,1.452 0.454,0.738 0.87,1.498 c 4.597,8.28 6.092,18.439 3.356,27.58 -3.407,11.382 -11.419,18.169 -21.533,23.613 -0.022,9.657 1.467,60.562 -1.021,66.594 -1.535,3.722 -4.48,5.258 -8.016,6.691 -0.396,0.03 -0.793,0.051 -1.19,0.059 -4.284,0.083 -8.028,-0.641 -11.135,-3.788 -2.273,-2.302 -2.725,-5.051 -3.12,-8.144 -0.963,-7.541 -0.04,-15.433 0.046,-23.036 0.143,-12.561 0.038,-25.136 -0.011,-37.699 -7.453,-2.58 -14.631,-7.947 -19.079,-14.471 -6.271,-9.199 -6.29,-20.856 -4.347,-31.453 q -32.858,-24.651 -64.991,-50.241 c -3.913,1.826 -7.569,3.468 -11.852,4.226 q -0.829,0.143 -1.663,0.246 -0.835,0.102 -1.674,0.163 -0.839,0.062 -1.679,0.081 -0.841,0.02 -1.682,-0.002 -0.84,-0.022 -1.679,-0.085 -0.839,-0.063 -1.673,-0.168 -0.834,-0.104 -1.663,-0.249 -0.828,-0.146 -1.648,-0.332 -0.82,-0.186 -1.63,-0.413 -0.81,-0.226 -1.608,-0.492 -0.798,-0.266 -1.581,-0.571 -0.784,-0.305 -1.552,-0.649 -0.767,-0.343 -1.517,-0.724 -0.75,-0.381 -1.48,-0.798 -0.73,-0.417 -1.439,-0.87 -0.709,-0.453 -1.394,-0.94 -0.729,-0.519 -1.43,-1.073 -0.702,-0.555 -1.375,-1.144 -0.673,-0.589 -1.315,-1.211 -0.643,-0.622 -1.253,-1.276 -0.611,-0.653 -1.187996,-1.337 -0.577,-0.683 -1.119,-1.394 -0.542,-0.712 -1.047,-1.45 -0.506,-0.737 -0.974,-1.499 -0.468,-0.763 -0.897,-1.547 -0.429,-0.785 -0.819,-1.59 -0.389,-0.805 -0.737,-1.629 -0.349,-0.824 -0.655,-1.664 -0.307,-0.84 -0.571,-1.695 -0.264,-0.854 -0.485,-1.721 -0.221,-0.866 -0.398,-1.743 -0.177,-0.877 -0.31,-1.761 c -1.475,-9.237 0.552,-18.591 6.113,-26.156 6.799996,-9.249 16.110996,-13.099 27.162996,-14.77 z m 3.956,48.148 q 0.311,-0.056 0.62,-0.127 0.308,-0.071 0.613,-0.157 0.304,-0.086 0.604,-0.187 0.3,-0.1 0.595,-0.215 0.294,-0.116 0.583,-0.245 0.289,-0.13 0.571,-0.273 0.282,-0.143 0.557,-0.3 0.274,-0.157 0.541,-0.327 0.267,-0.17 0.525,-0.353 0.258,-0.183 0.507,-0.378 0.249,-0.196 0.488,-0.403 0.239,-0.207 0.468,-0.426 0.229,-0.218 0.447,-0.448 0.217,-0.229 0.424,-0.469 0.206,-0.24 0.401,-0.489 0.194,-0.25 0.376,-0.509 0.182,-0.258 0.351,-0.526 0.17,-0.267 0.326,-0.542 0.156,-0.276 0.298,-0.558 0.142,-0.283 0.271,-0.572 0.128,-0.289 0.242,-0.584 0.115,-0.295 0.214,-0.595 0.1,-0.301 0.185,-0.605 0.085,-0.305 0.155,-0.614 0.07,-0.308 0.125,-0.62 0.055,-0.311 0.094,-0.625 0.04,-0.314 0.064,-0.63 0.024,-0.315 0.033,-0.632 0.009,-0.316 0.003,-0.632 -0.007,-0.316 -0.029,-0.632 -0.022,-0.316 -0.059,-0.63 -0.037,-0.314 -0.09,-0.626 -0.053,-0.312 -0.12,-0.621 -0.068,-0.309 -0.151,-0.615 -0.082,-0.305 -0.18,-0.606 -0.097,-0.301 -0.21,-0.597 -0.112,-0.296 -0.238,-0.586 -0.126,-0.29 -0.267,-0.574 -0.14,-0.283 -0.294,-0.56 -0.154,-0.276 -0.321,-0.545 -0.167,-0.268 -0.348,-0.528 -0.18,-0.261 -0.372,-0.512 -0.193,-0.251 -0.398,-0.492 -0.204,-0.241 -0.42,-0.472 -0.217,-0.231 -0.444,-0.452 -0.227,-0.22 -0.464,-0.429 -0.238,-0.209 -0.486,-0.406 -0.247,-0.197 -0.504,-0.382 -0.257,-0.185 -0.522,-0.357 -0.266,-0.172 -0.539,-0.331 -0.274,-0.159 -0.555,-0.304 -0.281,-0.145 -0.569,-0.277 -0.288,-0.131 -0.581,-0.249 -0.294,-0.117 -0.594,-0.22 -0.299,-0.103 -0.603,-0.191 -0.303,-0.088 -0.611,-0.162 -0.308,-0.073 -0.619,-0.131 -0.311,-0.058 -0.625,-0.101 -0.313,-0.043 -0.628,-0.071 -0.316,-0.027 -0.632,-0.04 -0.316,-0.012 -0.632,-0.009 -0.317,0.003 -0.632,0.022 -0.316,0.019 -0.631,0.053 -0.314,0.034 -0.627,0.083 -0.423,0.067 -0.84,0.161 -0.417,0.094 -0.827,0.216 -0.41,0.121 -0.811,0.269 -0.401,0.149 -0.792,0.323 -0.391,0.174 -0.769,0.374 -0.378,0.2 -0.742,0.424 -0.364,0.224 -0.713,0.472 -0.349,0.247 -0.68,0.517 -0.332,0.271 -0.645,0.562 -0.313,0.291 -0.607,0.603 -0.293,0.311 -0.565,0.641 -0.272,0.33 -0.522,0.677 -0.25,0.347 -0.476,0.71 -0.227,0.363 -0.429,0.74 -0.202,0.377 -0.378,0.766 -0.177,0.39 -0.328,0.79 -0.151,0.4 -0.275,0.81 -0.124,0.409 -0.221,0.825 -0.097,0.417 -0.166,0.839 -0.069,0.422 -0.11,0.848 -0.041,0.426 -0.055,0.853 -0.013,0.428 0.002,0.855 0.015,0.428 0.059,0.853 0.043,0.426 0.114,0.847 0.071,0.422 0.17,0.838 0.098,0.416 0.224,0.825 0.126,0.409 0.279,0.808 0.152,0.4 0.331,0.789 0.178,0.388 0.382,0.764 0.204,0.377 0.432,0.738 0.228,0.362 0.479,0.708 0.251,0.346 0.525,0.675 0.274,0.329 0.568,0.639 0.295,0.31 0.609,0.6 0.315,0.29 0.648,0.558 0.333,0.269 0.682,0.515 0.35,0.246 0.716,0.469 0.365,0.222 0.744,0.42 0.379,0.198 0.77,0.371 0.392,0.172 0.794,0.319 0.402,0.146 0.812,0.266 0.411,0.12 0.828,0.212 0.418,0.092 0.841,0.157 0.423,0.065 0.849,0.102 0.426,0.036 0.854,0.045 0.427,0.008 0.855,-0.011 0.427,-0.02 0.852,-0.068 0.425,-0.047 0.846,-0.123 z m 116.497,92.207 q 0.304,-0.047 0.605,-0.109 0.301,-0.062 0.599,-0.138 0.298,-0.077 0.592,-0.168 0.293,-0.091 0.582,-0.197 0.289,-0.105 0.572,-0.225 0.284,-0.12 0.561,-0.253 0.277,-0.133 0.547,-0.28 0.27,-0.147 0.533,-0.307 0.263,-0.159 0.517,-0.332 0.255,-0.173 0.501,-0.358 0.245,-0.185 0.482,-0.381 0.236,-0.197 0.462,-0.405 0.227,-0.208 0.443,-0.427 0.216,-0.219 0.42,-0.449 0.205,-0.229 0.399,-0.468 0.193,-0.239 0.374,-0.487 0.182,-0.249 0.351,-0.506 0.169,-0.257 0.325,-0.522 0.156,-0.264 0.299,-0.537 0.143,-0.272 0.272,-0.551 0.129,-0.279 0.245,-0.564 0.116,-0.285 0.217,-0.575 0.101,-0.291 0.188,-0.586 0.087,-0.295 0.16,-0.593 0.072,-0.299 0.13,-0.601 0.057,-0.302 0.1,-0.607 0.043,-0.304 0.07,-0.611 0.028,-0.306 0.041,-0.613 0.012,-0.308 0.01,-0.615 -0.003,-0.308 -0.02,-0.615 -0.018,-0.307 -0.051,-0.612 -0.032,-0.306 -0.08,-0.61 -0.048,-0.304 -0.11,-0.605 -0.063,-0.301 -0.14,-0.599 -0.077,-0.297 -0.169,-0.591 -0.092,-0.293 -0.198,-0.582 -0.106,-0.289 -0.226,-0.572 -0.12,-0.283 -0.254,-0.56 -0.134,-0.276 -0.282,-0.546 -0.147,-0.27 -0.307,-0.533 -0.161,-0.262 -0.334,-0.516 -0.173,-0.254 -0.358,-0.5 -0.186,-0.245 -0.383,-0.481 -0.197,-0.236 -0.406,-0.462 -0.208,-0.226 -0.428,-0.441 -0.219,-0.216 -0.449,-0.42 -0.23,-0.204 -0.469,-0.397 -0.24,-0.193 -0.489,-0.374 -0.248,-0.181 -0.506,-0.349 -0.257,-0.169 -0.522,-0.324 -0.265,-0.156 -0.538,-0.298 -0.273,-0.142 -0.552,-0.271 -0.279,-0.129 -0.564,-0.244 -0.286,-0.115 -0.576,-0.216 -0.291,-0.1 -0.586,-0.187 -0.295,-0.086 -0.594,-0.158 -0.299,-0.072 -0.601,-0.129 -0.302,-0.057 -0.607,-0.099 -0.305,-0.042 -0.611,-0.069 -0.306,-0.027 -0.614,-0.039 -0.307,-0.012 -0.614,-0.009 -0.308,0.004 -0.615,0.022 -0.307,0.018 -0.613,0.051 -0.305,0.034 -0.609,0.082 -0.303,0.048 -0.603,0.111 -0.3,0.063 -0.597,0.141 -0.297,0.077 -0.589,0.169 -0.293,0.092 -0.581,0.199 -0.287,0.106 -0.569,0.226 -0.282,0.12 -0.558,0.254 -0.276,0.134 -0.545,0.281 -0.269,0.148 -0.531,0.308 -0.261,0.16 -0.515,0.333 -0.253,0.173 -0.498,0.358 -0.244,0.185 -0.479,0.382 -0.235,0.197 -0.461,0.405 -0.225,0.208 -0.44,0.427 -0.214,0.219 -0.418,0.448 -0.204,0.23 -0.396,0.469 -0.193,0.238 -0.373,0.487 -0.18,0.248 -0.348,0.504 -0.168,0.257 -0.324,0.521 -0.155,0.265 -0.297,0.537 -0.142,0.271 -0.271,0.55 -0.128,0.278 -0.243,0.563 -0.115,0.284 -0.215,0.574 -0.101,0.289 -0.188,0.584 -0.086,0.294 -0.158,0.592 -0.072,0.298 -0.129,0.6 -0.057,0.301 -0.099,0.605 -0.043,0.303 -0.07,0.609 -0.028,0.305 -0.04,0.612 -0.012,0.306 -0.01,0.613 0.003,0.307 0.021,0.613 0.017,0.306 0.05,0.611 0.032,0.305 0.08,0.608 0.048,0.303 0.11,0.603 0.062,0.301 0.139,0.597 0.077,0.297 0.169,0.59 0.091,0.293 0.197,0.581 0.105,0.288 0.225,0.57 0.12,0.283 0.253,0.559 0.133,0.276 0.28,0.545 0.147,0.27 0.306,0.531 0.16,0.262 0.333,0.516 0.172,0.254 0.357,0.498 0.184,0.245 0.381,0.481 0.196,0.236 0.404,0.461 0.207,0.226 0.426,0.441 0.218,0.215 0.447,0.42 0.229,0.204 0.467,0.397 0.239,0.192 0.486,0.373 0.248,0.181 0.504,0.35 0.257,0.168 0.521,0.324 0.264,0.156 0.535,0.299 0.272,0.142 0.55,0.271 0.278,0.13 0.562,0.245 0.285,0.115 0.574,0.217 0.29,0.101 0.584,0.188 0.294,0.087 0.592,0.159 0.298,0.073 0.599,0.131 0.301,0.058 0.605,0.101 0.304,0.043 0.609,0.071 0.305,0.028 0.612,0.041 0.306,0.013 0.613,0.011 0.306,-0.002 0.613,-0.019 0.306,-0.017 0.611,-0.049 0.305,-0.032 0.608,-0.079 z"
     id="path2"
     style="fill:#f8e6ac;fill-opacity:1" /><path
     d="m 124.75097,204.62817 c 3.905,-0.271 7.659,0.247 11.414,1.331 q 0.843,0.241 1.673,0.523 0.83,0.282 1.645,0.604 0.815,0.323 1.613,0.685 0.798,0.363 1.577,0.765 0.779,0.401 1.538,0.841 0.758,0.439 1.494,0.916 0.735,0.477 1.447,0.989 0.711,0.512 1.396,1.059 0.685,0.547 1.342,1.127 0.657,0.58 1.285,1.192 0.627,0.612 1.224,1.254 0.597,0.642 1.161,1.313 0.564,0.671 1.094,1.369 0.531,0.698 1.026,1.421 0.495,0.723 0.954,1.47 0.459,0.747 0.88,1.516 0.399,0.744 0.761,1.506 0.362,0.762 0.687,1.541 0.324,0.779 0.61,1.573 0.286,0.794 0.532,1.601 0.247,0.807 0.453,1.626 0.207,0.818 0.373,1.645 0.167,0.828 0.292,1.662 0.126,0.835 0.21,1.674 0.085,0.84 0.128,1.683 0.043,0.843 0.045,1.686 0.002,0.844 -0.038,1.687 -0.039,0.843 -0.12,1.683 -0.081,0.84 -0.203,1.675 -0.122,0.836 -0.284,1.664 -0.163,0.828 -0.366,1.647 -0.203,0.819 -0.446,1.627 c -3.443,11.244 -11.628,18.467 -21.728,23.767 0.821,9.492 0.151,19.229 0.174,28.767 0.024,9.887 0.669,19.924 0.134,29.785 -0.139,2.55 -0.25,5.436 -1.38,7.763 -1.745,3.594 -5.062,5.27 -8.685,6.437 -4.333,0.229 -8.349,-0.009 -11.655,-3.175 -1.439,-1.377 -2.902,-3.257 -3.396,-5.219 -1.758,-6.99 -0.608,-15.797 -0.604,-23.022 l 0.049,-41.295 c -2.821,-1.497 -5.68,-2.969 -8.275,-4.841 q -0.688,-0.489 -1.351,-1.013 -0.664,-0.523 -1.3,-1.078 -0.636,-0.556 -1.244,-1.142 -0.608,-0.586 -1.185996,-1.202 -0.578,-0.616 -1.124,-1.26 -0.547,-0.644 -1.061,-1.315 -0.513,-0.67 -0.993,-1.365 -0.48,-0.695 -0.925,-1.413 -0.444,-0.718 -0.853,-1.458 -0.408,-0.739 -0.779,-1.498 -0.371,-0.759 -0.704,-1.535 -0.333,-0.776 -0.626,-1.568 -0.294,-0.792 -0.548,-1.597 -0.254,-0.806 -0.468,-1.623 -0.213,-0.817 -0.386,-1.644 -0.173,-0.827 -0.304,-1.661 -0.136,-0.882 -0.229,-1.769 -0.093,-0.887 -0.142,-1.778 -0.049,-0.891 -0.054,-1.783 -0.005,-0.893 0.034,-1.784 0.039,-0.891 0.122,-1.78 0.083,-0.888 0.21,-1.771 0.127,-0.883 0.297,-1.759 0.17,-0.876 0.383,-1.742 0.213,-0.867 0.468,-1.722 0.256,-0.854 0.553,-1.696 0.298,-0.841 0.636,-1.666 0.339,-0.826 0.717,-1.634 0.379,-0.807 0.797,-1.596 0.419,-0.788 0.875,-1.554 0.457,-0.767 0.95,-1.51 0.494,-0.743 1.024,-1.461 c 6.785996,-9.045 16.327996,-12.651 27.179996,-14.145 z m 4.497,48.135 q 0.314,-0.077 0.624,-0.17 0.31,-0.092 0.615,-0.2 0.305,-0.107 0.605,-0.23 0.299,-0.122 0.592,-0.259 0.294,-0.137 0.58,-0.288 0.286,-0.152 0.564,-0.317 0.278,-0.165 0.548,-0.343 0.27,-0.179 0.53,-0.37 0.261,-0.192 0.512,-0.396 0.251,-0.204 0.492,-0.42 0.241,-0.217 0.47,-0.444 0.23,-0.228 0.448,-0.467 0.219,-0.239 0.425,-0.488 0.206,-0.249 0.4,-0.508 0.194,-0.259 0.375,-0.527 0.181,-0.268 0.349,-0.545 0.167,-0.277 0.321,-0.561 0.154,-0.285 0.293,-0.577 0.14,-0.292 0.265,-0.59 0.125,-0.299 0.235,-0.603 0.111,-0.304 0.206,-0.613 0.095,-0.309 0.175,-0.623 0.08,-0.313 0.144,-0.63 0.065,-0.317 0.114,-0.637 0.049,-0.32 0.082,-0.642 0.033,-0.322 0.05,-0.645 0.017,-0.323 0.019,-0.646 0.001,-0.324 -0.014,-0.647 -0.014,-0.323 -0.044,-0.645 -0.031,-0.322 -0.077,-0.642 -0.046,-0.321 -0.108,-0.638 -0.062,-0.318 -0.139,-0.632 -0.077,-0.314 -0.17,-0.624 -0.092,-0.31 -0.2,-0.615 -0.108,-0.305 -0.231,-0.605 -0.122,-0.299 -0.259,-0.592 -0.137,-0.293 -0.289,-0.579 -0.151,-0.286 -0.316,-0.564 -0.165,-0.278 -0.344,-0.548 -0.179,-0.27 -0.37,-0.531 -0.192,-0.26 -0.396,-0.511 -0.205,-0.251 -0.421,-0.492 -0.216,-0.24 -0.444,-0.47 -0.228,-0.23 -0.467,-0.448 -0.239,-0.218 -0.488,-0.424 -0.249,-0.207 -0.508,-0.4 -0.259,-0.194 -0.528,-0.375 -0.268,-0.181 -0.545,-0.348 -0.277,-0.168 -0.561,-0.321 -0.285,-0.154 -0.577,-0.293 -0.292,-0.14 -0.59,-0.265 -0.299,-0.125 -0.603,-0.235 -0.304,-0.11 -0.614,-0.205 -0.309,-0.095 -0.622,-0.175 -0.314,-0.08 -0.631,-0.144 -0.317,-0.065 -0.637,-0.113 -0.32,-0.049 -0.642,-0.082 -0.321,-0.033 -0.645,-0.05 -0.323,-0.017 -0.646,-0.018 -0.324,-0.001 -0.647,0.013 -0.323,0.015 -0.645,0.046 -0.322,0.03 -0.643,0.076 -0.32,0.047 -0.637,0.109 -0.318,0.062 -0.632,0.139 -0.314,0.077 -0.624,0.17 -0.309,0.093 -0.614,0.201 -0.305,0.108 -0.604,0.23 -0.299,0.123 -0.592,0.26 -0.293,0.137 -0.579,0.288 -0.285,0.152 -0.563,0.317 -0.278,0.165 -0.548,0.344 -0.269,0.178 -0.53,0.37 -0.26,0.192 -0.511,0.396 -0.25,0.204 -0.491,0.42 -0.24,0.216 -0.47,0.444 -0.229,0.228 -0.447,0.467 -0.218,0.238 -0.424,0.488 -0.206,0.249 -0.4,0.508 -0.193,0.259 -0.374,0.527 -0.181,0.268 -0.348,0.545 -0.167,0.276 -0.321,0.561 -0.153,0.284 -0.293,0.576 -0.139,0.292 -0.264,0.59 -0.125,0.298 -0.235,0.602 -0.11,0.304 -0.205,0.613 -0.095,0.309 -0.175,0.623 -0.08,0.313 -0.144,0.63 -0.065,0.317 -0.113,0.636 -0.049,0.32 -0.082,0.642 -0.033,0.321 -0.05,0.644 -0.017,0.323 -0.019,0.646 -0.001,0.324 0.014,0.647 0.014,0.323 0.045,0.644 0.03,0.322 0.076,0.642 0.046,0.32 0.108,0.638 0.062,0.317 0.139,0.631 0.077,0.314 0.17,0.624 0.092,0.31 0.2,0.614 0.108,0.305 0.23,0.605 0.123,0.299 0.26,0.592 0.137,0.293 0.288,0.578 0.151,0.286 0.316,0.564 0.165,0.278 0.344,0.548 0.178,0.269 0.37,0.53 0.191,0.26 0.395,0.511 0.204,0.251 0.42,0.492 0.216,0.24 0.444,0.47 0.228,0.229 0.466,0.447 0.239,0.219 0.488,0.425 0.249,0.206 0.508,0.4 0.259,0.194 0.527,0.374 0.268,0.181 0.544,0.349 0.277,0.167 0.561,0.321 0.285,0.153 0.576,0.293 0.292,0.14 0.59,0.265 0.298,0.125 0.602,0.235 0.304,0.11 0.613,0.205 0.309,0.096 0.623,0.176 0.313,0.08 0.63,0.144 0.316,0.065 0.636,0.114 0.32,0.048 0.641,0.082 0.322,0.033 0.645,0.05 0.323,0.017 0.646,0.019 0.323,0.001 0.646,-0.013 0.323,-0.014 0.645,-0.045 0.322,-0.03 0.642,-0.076 0.32,-0.046 0.638,-0.107 0.317,-0.062 0.631,-0.139 z"
     id="path4"
     style="fill:#f8e6ac;fill-opacity:1" /><path
     fill="#79aab8"
     d="m 239.32597,111.74817 q 0.847,-0.098 1.697,-0.154 0.851,-0.056 1.703,-0.07 0.852,-0.014 1.704,0.013 0.852,0.028 1.701,0.097 0.85,0.07 1.695,0.181 0.845,0.111 1.684,0.263 0.838,0.153 1.668,0.346 0.831,0.194 1.65,0.427 0.82,0.234 1.627,0.508 0.807,0.274 1.6,0.587 0.792,0.313 1.569,0.665 0.776,0.352 1.534,0.741 0.759,0.389 1.497,0.816 0.738,0.426 1.454,0.888 0.717,0.461 1.41,0.958 0.692,0.496 1.36,1.026 0.668,0.53 1.308,1.092 0.641,0.562 1.254,1.155 0.612,0.593 1.195,1.215 0.582,0.622 1.134,1.272 0.551,0.65 1.07,1.326 0.519,0.676 1.004,1.377 0.485,0.701 0.935,1.425 0.45,0.724 0.864,1.469 0.413,0.745 0.79,1.51 0.377,0.764 0.716,1.546 0.339,0.782 0.639,1.58 0.3,0.798 0.56,1.61 0.261,0.811 0.481,1.634 0.22,0.824 0.4,1.657 0.18,0.833 0.318,1.674 0.139,0.841 0.236,1.688 0.097,0.847 0.153,1.697 0.055,0.851 0.069,1.703 0.013,0.852 -0.015,1.704 -0.028,0.852 -0.098,1.702 -0.07,0.849 -0.182,1.694 -0.112,0.845 -0.265,1.684 -0.153,0.838 -0.347,1.668 -0.194,0.83 -0.428,1.649 -0.235,0.82 -0.509,1.627 -0.274,0.807 -0.588,1.599 -0.314,0.793 -0.666,1.569 -0.352,0.776 -0.742,1.534 -0.39,0.758 -0.817,1.496 -0.427,0.738 -0.889,1.454 -0.462,0.716 -0.959,1.408 -0.497,0.693 -1.028,1.36 -0.53,0.667 -1.092,1.308 -0.563,0.64 -1.156,1.252 -0.593,0.612 -1.216,1.194 -0.623,0.582 -1.273,1.133 -0.65,0.551 -1.327,1.069 -0.677,0.519 -1.378,1.003 -0.701,0.485 -1.425,0.934 -0.725,0.45 -1.47,0.863 -0.745,0.413 -1.51,0.79 -0.765,0.376 -1.547,0.714 -0.783,0.338 -1.581,0.638 -0.798,0.299 -1.609,0.559 -0.812,0.26 -1.636,0.48 -0.823,0.22 -1.656,0.399 -0.834,0.179 -1.675,0.317 -0.841,0.138 -1.688,0.234 -0.846,0.096 -1.696,0.151 -0.85,0.055 -1.701,0.068 -0.852,0.013 -1.703,-0.016 -0.851,-0.028 -1.699,-0.099 -0.849,-0.07 -1.693,-0.182 -0.844,-0.112 -1.682,-0.265 -0.838,-0.154 -1.667,-0.348 -0.829,-0.194 -1.648,-0.429 -0.818,-0.234 -1.624,-0.509 -0.806,-0.274 -1.598,-0.588 -0.792,-0.313 -1.567,-0.665 -0.775,-0.352 -1.533,-0.742 -0.757,-0.39 -1.494,-0.816 -0.737,-0.427 -1.452,-0.889 -0.716,-0.462 -1.407,-0.958 -0.692,-0.497 -1.359,-1.027 -0.666,-0.529 -1.306,-1.091 -0.64,-0.562 -1.252,-1.155 -0.611,-0.593 -1.193,-1.214 -0.582,-0.622 -1.132,-1.272 -0.551,-0.65 -1.069,-1.326 -0.517,-0.676 -1.002,-1.376 -0.484,-0.701 -0.933,-1.424 -0.449,-0.723 -0.863,-1.468 -0.413,-0.745 -0.789,-1.508 -0.376,-0.764 -0.715,-1.546 -0.338,-0.781 -0.637,-1.578 -0.3,-0.798 -0.56,-1.608 -0.26,-0.811 -0.48,-1.634 -0.22,-0.823 -0.4,-1.655 -0.179,-0.833 -0.318,-1.673 -0.138,-0.84 -0.235,-1.686 -0.097,-0.846 -0.152,-1.696 -0.056,-0.849 -0.069,-1.701 -0.014,-0.851 0.014,-1.702 0.028,-0.852 0.098,-1.7 0.07,-0.849 0.181,-1.693 0.112,-0.844 0.264,-1.682 0.153,-0.838 0.346,-1.667 0.194,-0.829 0.428,-1.648 0.234,-0.819 0.508,-1.625 0.274,-0.807 0.587,-1.598 0.313,-0.792 0.664,-1.568 0.352,-0.776 0.741,-1.533 0.389,-0.757 0.815,-1.495 0.426,-0.737 0.887,-1.453 0.462,-0.716 0.958,-1.408 0.496,-0.692 1.025,-1.359 0.53,-0.667 1.091,-1.307 0.561,-0.64 1.154,-1.252 0.592,-0.612 1.213,-1.194 0.622,-0.583 1.271,-1.134 0.649,-0.551 1.325,-1.069 0.675,-0.519 1.376,-1.003 0.7,-0.485 1.423,-0.935 0.723,-0.45 1.467,-0.863 0.744,-0.414 1.508,-0.791 0.764,-0.377 1.545,-0.715 0.781,-0.339 1.578,-0.639 0.797,-0.301 1.608,-0.561 0.81,-0.261 1.633,-0.482 0.822,-0.22 1.655,-0.4 0.832,-0.18 1.672,-0.319 0.84,-0.139 1.686,-0.237 z m 6.405,47.59 q 0.324,-0.059 0.645,-0.135 0.321,-0.075 0.638,-0.166 0.316,-0.091 0.628,-0.197 0.312,-0.107 0.618,-0.229 0.306,-0.121 0.606,-0.258 0.3,-0.137 0.593,-0.288 0.293,-0.151 0.578,-0.317 0.285,-0.166 0.561,-0.345 0.276,-0.179 0.544,-0.372 0.267,-0.193 0.524,-0.399 0.258,-0.205 0.505,-0.424 0.247,-0.218 0.483,-0.448 0.236,-0.23 0.46,-0.471 0.224,-0.242 0.436,-0.494 0.212,-0.252 0.412,-0.515 0.199,-0.262 0.386,-0.534 0.186,-0.272 0.358,-0.552 0.173,-0.281 0.332,-0.57 0.158,-0.289 0.302,-0.585 0.145,-0.296 0.274,-0.6 0.129,-0.303 0.244,-0.612 0.114,-0.309 0.213,-0.623 0.099,-0.314 0.182,-0.633 0.083,-0.319 0.151,-0.642 0.067,-0.322 0.119,-0.648 0.051,-0.325 0.087,-0.653 0.035,-0.328 0.054,-0.657 0.02,-0.328 0.023,-0.658 0.003,-0.33 -0.011,-0.659 -0.013,-0.329 -0.043,-0.657 -0.029,-0.329 -0.075,-0.655 -0.045,-0.326 -0.107,-0.65 -0.062,-0.324 -0.139,-0.644 -0.078,-0.32 -0.171,-0.636 -0.093,-0.316 -0.202,-0.628 -0.109,-0.311 -0.233,-0.616 -0.123,-0.305 -0.262,-0.604 -0.139,-0.299 -0.292,-0.591 -0.154,-0.292 -0.321,-0.575 -0.168,-0.284 -0.349,-0.559 -0.181,-0.275 -0.376,-0.541 -0.195,-0.266 -0.402,-0.522 -0.208,-0.256 -0.428,-0.502 -0.22,-0.245 -0.451,-0.479 -0.232,-0.235 -0.475,-0.457 -0.243,-0.223 -0.497,-0.433 -0.253,-0.211 -0.517,-0.408 -0.264,-0.198 -0.537,-0.382 -0.273,-0.185 -0.555,-0.355 -0.282,-0.171 -0.572,-0.327 -0.29,-0.157 -0.587,-0.299 -0.298,-0.142 -0.602,-0.269 -0.304,-0.128 -0.614,-0.24 -0.31,-0.112 -0.625,-0.209 -0.315,-0.096 -0.634,-0.177 -0.319,-0.081 -0.642,-0.147 -0.323,-0.065 -0.649,-0.114 -0.326,-0.049 -0.654,-0.082 -0.328,-0.033 -0.657,-0.05 -0.329,-0.017 -0.659,-0.018 -0.329,-0.001 -0.658,0.015 -0.33,0.016 -0.658,0.047 -0.328,0.032 -0.654,0.08 -0.326,0.048 -0.649,0.112 -0.32,0.063 -0.637,0.142 -0.317,0.079 -0.63,0.174 -0.313,0.094 -0.62,0.203 -0.308,0.11 -0.61,0.234 -0.302,0.125 -0.598,0.264 -0.295,0.139 -0.584,0.292 -0.288,0.153 -0.569,0.32 -0.28,0.168 -0.552,0.348 -0.272,0.181 -0.535,0.375 -0.263,0.193 -0.516,0.4 -0.253,0.206 -0.496,0.425 -0.243,0.218 -0.475,0.448 -0.232,0.23 -0.452,0.471 -0.22,0.242 -0.428,0.493 -0.209,0.252 -0.404,0.513 -0.196,0.262 -0.379,0.532 -0.182,0.271 -0.352,0.55 -0.169,0.28 -0.324,0.567 -0.156,0.287 -0.297,0.582 -0.141,0.294 -0.268,0.595 -0.126,0.301 -0.238,0.608 -0.112,0.307 -0.209,0.619 -0.096,0.312 -0.178,0.628 -0.081,0.317 -0.147,0.637 -0.065,0.32 -0.115,0.642 -0.05,0.323 -0.085,0.648 -0.034,0.325 -0.052,0.651 -0.018,0.326 -0.021,0.653 -0.002,0.326 0.011,0.652 0.014,0.327 0.044,0.652 0.029,0.325 0.074,0.649 0.046,0.323 0.107,0.644 0.061,0.321 0.138,0.638 0.077,0.318 0.169,0.631 0.092,0.313 0.199,0.622 0.107,0.308 0.23,0.611 0.122,0.303 0.259,0.6 0.137,0.296 0.288,0.586 0.151,0.289 0.316,0.571 0.166,0.282 0.344,0.555 0.179,0.273 0.371,0.538 0.192,0.264 0.396,0.518 0.205,0.255 0.422,0.499 0.217,0.245 0.445,0.478 0.228,0.233 0.468,0.455 0.239,0.222 0.49,0.432 0.25,0.21 0.51,0.408 0.26,0.198 0.529,0.382 0.27,0.185 0.548,0.356 0.278,0.171 0.564,0.329 0.286,0.157 0.58,0.3 0.293,0.144 0.593,0.272 0.301,0.129 0.607,0.243 0.306,0.114 0.617,0.213 0.311,0.099 0.627,0.182 0.316,0.084 0.635,0.152 0.32,0.068 0.642,0.12 0.322,0.052 0.647,0.089 0.325,0.036 0.65,0.057 0.326,0.021 0.653,0.025 0.327,0.005 0.653,-0.006 0.326,-0.012 0.652,-0.039 0.325,-0.027 0.649,-0.07 0.324,-0.043 0.645,-0.102 z"
     id="path5" /></svg>
